<?xml version="1.0" encoding="utf-8"?>
<!-- Generator: Adobe Illustrator 19.2.1, SVG Export Plug-In . SVG Version: 6.00 Build 0)  -->
<svg version="1.1" id="layer" xmlns="http://www.w3.org/2000/svg" xmlns:xlink="http://www.w3.org/1999/xlink" x="0px" y="0px"
	 viewBox="0 0 652 652" style="enable-background:new 0 0 652 652;" xml:space="preserve">
<style type="text/css">
	.st0{fill:#8DC21F;}
	.st1{clip-path:url(#SVGID_2_);}
	.st2{clip-path:url(#SVGID_4_);fill:url(#SVGID_5_);}
	.st3{clip-path:url(#SVGID_7_);}
	.st4{clip-path:url(#SVGID_9_);fill:url(#SVGID_10_);}
	.st5{fill:#589720;}
	.st6{fill:#4B575E;}
</style>
<g>
	<path class="st0" d="M541.2,246.3c26.2-44.6-28-85-28-85S486.7,229.7,541.2,246.3"/>
	<g>
		<defs>
			<path id="SVGID_1_" d="M538.8,274.4c-52,17.8-88.5-36.6-88.5-36.6S528.2,223,538.8,274.4"/>
		</defs>
		<clipPath id="SVGID_2_">
			<use xlink:href="#SVGID_1_"  style="overflow:visible;"/>
		</clipPath>
		<g class="st1">
			<defs>
				<rect id="SVGID_3_" x="450.3" y="223" width="88.5" height="69.2"/>
			</defs>
			<clipPath id="SVGID_4_">
				<use xlink:href="#SVGID_3_"  style="overflow:visible;"/>
			</clipPath>
			
				<linearGradient id="SVGID_5_" gradientUnits="userSpaceOnUse" x1="47.6536" y1="735.6932" x2="52.1885" y2="735.6932" gradientTransform="matrix(3.3368 12.4531 12.4531 -3.3368 -8834.0625 2089.4407)">
				<stop  offset="0" style="stop-color:#8EC31E"/>
				<stop  offset="0.3202" style="stop-color:#8EC31E"/>
				<stop  offset="1" style="stop-color:#5A9820"/>
			</linearGradient>
			<polygon class="st2" points="532.9,200.8 556.1,287.5 456.2,314.3 433,227.6 			"/>
		</g>
	</g>
	<g>
		<defs>
			<path id="SVGID_6_" d="M548.3,276.8c54.9-1.4,70.3-65.1,70.3-65.1S540.4,224.9,548.3,276.8"/>
		</defs>
		<clipPath id="SVGID_7_">
			<use xlink:href="#SVGID_6_"  style="overflow:visible;"/>
		</clipPath>
		<g class="st3">
			<defs>
				<rect id="SVGID_8_" x="540.4" y="211.7" width="78.2" height="65.1"/>
			</defs>
			<clipPath id="SVGID_9_">
				<use xlink:href="#SVGID_8_"  style="overflow:visible;"/>
			</clipPath>
			
				<linearGradient id="SVGID_10_" gradientUnits="userSpaceOnUse" x1="53.585" y1="739.5304" x2="58.12" y2="739.5304" gradientTransform="matrix(2.6798 10.001 10.001 -2.6798 -6965.7798 1669.1665)">
				<stop  offset="0" style="stop-color:#8EC31E"/>
				<stop  offset="0.3202" style="stop-color:#8EC31E"/>
				<stop  offset="1" style="stop-color:#5A9820"/>
			</linearGradient>
			<polygon class="st4" points="613.4,192.2 634.9,272.5 545.7,296.4 524.1,216.1 			"/>
		</g>
	</g>
	<path class="st5" d="M539.1,285.4c-54.1-9.8-82.1,49.4-82.1,49.4S536.2,337.9,539.1,285.4"/>
	<path class="st5" d="M547.3,284.9c54.9,3.2,68.2,67.3,68.2,67.3S537.8,336.5,547.3,284.9"/>
	<path class="st6" d="M117.3,385.4v94.7h-12.2v-16.3c-5.1,6.2-10.8,10.9-17.2,14c-6.3,3.1-13.3,4.7-20.8,4.7
		c-13.4,0-24.8-4.9-34.3-14.6c-9.5-9.7-14.2-21.6-14.2-35.5c0-13.6,4.8-25.3,14.3-35C42.5,387.9,54,383,67.5,383
		c7.8,0,14.8,1.7,21.1,5c6.3,3.3,11.8,8.3,16.6,14.9v-17.4H117.3z M68.5,394.7c-6.8,0-13,1.7-18.8,5c-5.7,3.3-10.3,8-13.7,14
		c-3.4,6-5.1,12.4-5.1,19.2c0,6.7,1.7,13,5.1,19.1c3.4,6.1,8,10.8,13.8,14.2c5.8,3.4,11.9,5.1,18.5,5.1c6.7,0,13-1.7,18.9-5
		c6-3.4,10.5-7.9,13.8-13.7c3.2-5.7,4.8-12.2,4.8-19.4c0-11-3.6-20.1-10.8-27.5C87.9,398.4,79,394.7,68.5,394.7"/>
	<path class="st6" d="M141.4,385.4h12.2v16.4c4.2-6,8.6-10.4,13.1-13.2c6.2-3.7,12.6-5.6,19.4-5.6c4.6,0,9,0.9,13.1,2.7
		c4.1,1.8,7.5,4.2,10.1,7.2c2.6,3,4.9,7.3,6.8,12.9c4.1-7.4,9.1-13.1,15.2-16.9c6.1-3.9,12.6-5.8,19.6-5.8c6.5,0,12.3,1.7,17.4,5
		c5,3.3,8.7,7.9,11.2,13.8c2.4,5.9,3.7,14.8,3.7,26.7v51.7h-12.5v-51.7c0-10.2-0.7-17.1-2.2-20.9c-1.4-3.8-3.9-6.9-7.4-9.2
		c-3.5-2.3-7.7-3.5-12.5-3.5c-5.9,0-11.3,1.7-16.2,5.2c-4.9,3.5-8.5,8.1-10.7,13.9c-2.3,5.8-3.4,15.5-3.4,29.1v37.1H206v-48.5
		c0-11.4-0.7-19.2-2.1-23.3c-1.4-4.1-3.9-7.4-7.4-9.8c-3.5-2.5-7.8-3.7-12.6-3.7c-5.6,0-10.9,1.7-15.8,5.1c-4.9,3.4-8.5,8-10.9,13.7
		c-2.4,5.7-3.5,14.5-3.5,26.4v40.1h-12.2V385.4z"/>
	<path class="st6" d="M305,480.2V348.9h12.2v52.9c5.1-6.3,10.8-11,17.2-14.1c6.3-3.1,13.3-4.7,20.8-4.7c13.4,0,24.9,4.9,34.3,14.6
		c9.5,9.7,14.2,21.5,14.2,35.4c0,13.7-4.8,25.4-14.4,35.1c-9.6,9.7-21.1,14.5-34.5,14.5c-7.7,0-14.7-1.7-21-5
		c-6.3-3.3-11.8-8.3-16.6-14.9v17.4H305z M353.9,470.9c6.8,0,13-1.7,18.8-5c5.7-3.3,10.3-8,13.7-14c3.4-6,5.1-12.4,5.1-19.1
		c0-6.7-1.7-13.1-5.1-19.2c-3.4-6.1-8-10.8-13.8-14.2c-5.8-3.4-11.9-5.1-18.5-5.1c-6.6,0-13,1.7-19,5.1c-6,3.4-10.6,7.9-13.8,13.7
		c-3.2,5.7-4.8,12.2-4.8,19.4c0,11,3.6,20.1,10.8,27.5C334.5,467.2,343.4,470.9,353.9,470.9"/>
	<rect x="422" y="385.4" class="st6" width="12.2" height="94.7"/>
	<path class="st6" d="M456.9,385.4h12.2v44.2c0,10.8,0.6,18.2,1.7,22.3c1.7,5.8,5.1,10.4,10,13.8c4.9,3.4,10.8,5,17.6,5
		c6.8,0,12.6-1.6,17.3-4.9c4.7-3.3,8-7.6,9.8-12.9c1.2-3.6,1.8-11.4,1.8-23.2v-44.2h12.5V432c0,13.1-1.5,22.9-4.6,29.5
		c-3.1,6.6-7.6,11.8-13.7,15.5c-6.1,3.7-13.8,5.6-23,5.6c-9.2,0-16.9-1.9-23.1-5.6c-6.2-3.7-10.8-9-13.8-15.7
		c-3-6.7-4.6-16.8-4.6-30.3V385.4z"/>
	<path class="st6" d="M613.3,395.6l-7.8,8.1c-6.5-6.3-12.9-9.5-19.2-9.5c-4,0-7.3,1.3-10.2,3.9c-2.8,2.6-4.2,5.7-4.2,9.2
		c0,3.1,1.2,6,3.5,8.8c2.3,2.8,7.3,6.2,14.7,10c9.1,4.7,15.3,9.3,18.6,13.6c3.2,4.4,4.8,9.4,4.8,14.9c0,7.8-2.8,14.4-8.2,19.8
		c-5.5,5.4-12.3,8.1-20.5,8.1c-5.5,0-10.7-1.2-15.7-3.6c-5-2.4-9.1-5.6-12.4-9.8l7.7-8.7c6.2,7,12.9,10.5,19.9,10.5
		c4.9,0,9.1-1.6,12.5-4.7c3.5-3.1,5.2-6.8,5.2-11.1c0-3.5-1.1-6.6-3.4-9.3c-2.3-2.7-7.4-6.1-15.4-10.1c-8.6-4.4-14.4-8.7-17.5-13
		c-3.1-4.3-4.6-9.2-4.6-14.7c0-7.2,2.5-13.2,7.4-17.9c4.9-4.8,11.1-7.1,18.7-7.1C595.7,383,604.5,387.2,613.3,395.6"/>
</g>
</svg>
