<?xml version="1.0" encoding="utf-8"?>
<!-- Generator: Adobe Illustrator 19.0.0, SVG Export Plug-In . SVG Version: 6.00 Build 0)  -->
<svg version="1.1" id="Layer_1" xmlns="http://www.w3.org/2000/svg" xmlns:xlink="http://www.w3.org/1999/xlink" x="0px" y="0px"
	 viewBox="0 0 500 500" style="enable-background:new 0 0 500 500;" xml:space="preserve">
<style type="text/css">
	.st0{fill:#7CBA3D;}
	.st1{fill:#C5D83E;}
	.st2{fill:url(#SVGID_1_);}
	.st3{fill:url(#SVGID_2_);}
	.st4{fill:url(#SVGID_3_);}
</style>
<g id="XMLID_1_">
	<path id="XMLID_2_" class="st0" d="M368,285.7L368,285.7c-6.8-33.8-27.4-62.7-55.8-80.3l0,0l0,0l0,0l0,0c-2.6-1.6-5.3-3.2-8.1-4.6
		l-76-38.1l0,0l0,0l0,0l-4.1-2c-0.2-0.1-0.5-0.2-0.7-0.4h0l0,0l0,0l0,0l0,0l0,0l0,0l0,0l0,0l0,0l0,0l0,0l0,0l0,0l0,0l0,0
		c-7.9-4.1-14.6-10.1-19.6-17.4c-5.6-8.3-8.8-18.3-8.8-29.1c0-20,11.3-37.4,27.8-46.1L197.7,80c-40.4,20.1-68.1,61.8-68.1,110
		l1.8,21.1h0l0,0l0.1,0l-0.1,0c6.6,38.2,30.8,70.3,64,87.7l0,0l0,0l0,0l0,0l0,0l0,0l0,0l0.1,0.1l0,0l0,0l0,0l0,0l0,0l0,0l0,0l0,0
		l0.1,0l7.6,3.8l0-0.1l0,0.1l0,0l0,0l9.1,4.5l63.4,31.8c17.4,8.5,29.5,26.3,29.5,47v0.1l0,0.1v0.2l0,0v0.1l0,0v0.1l0,0v0.1l0,0v0
		l0,0.1v0c-0.2,13.5-5.5,25.7-14.1,34.9c-3.9,4.2-8.5,7.7-13.7,10.4l15.8-8l8.8-4.5c40.4-20.2,68.1-61.9,68.1-110L368,285.7"/>
	<path id="XMLID_3_" class="st1" d="M129.6,190.1c0-48.2,27.7-89.9,68.1-110l24.5-12.5c-16.5,8.8-27.8,26.1-27.8,46.1
		c0,10.8,3.3,20.8,8.8,29.1c-8.3,20.8-13.1,42.1-14.8,63.4c-10.5,5.3-22.4,8.3-34.9,8.3c-1.2,0-2.4,0-3.6-0.1
		c-6.5-0.3-12.7-1.4-18.6-3.1L129.6,190.1z M305.5,386.4L305.5,386.4L305.5,386.4z M305.5,386.5L305.5,386.5L305.5,386.5z
		 M305.5,386.5L305.5,386.5L305.5,386.5z M305.5,386.6L305.5,386.6L305.5,386.6z M305.5,386.6L305.5,386.6L305.5,386.6z
		 M305.5,386.7L305.5,386.7L305.5,386.7z M305.5,386.8L305.5,386.8L305.5,386.8z M305.5,386.8L305.5,386.8L305.5,386.8z
		 M305.5,386.9L305.5,386.9L305.5,386.9z M305.5,386.9L305.5,386.9L305.5,386.9z M305.5,387L305.5,387L305.5,387z M305.5,387
		L305.5,387L305.5,387z M305.5,387.1L305.5,387.1L305.5,387.1z M305.5,387.2L305.5,387.2L305.5,387.2z"/>
	
		<linearGradient id="SVGID_1_" gradientUnits="userSpaceOnUse" x1="-1.658625e-002" y1="-0.12" x2="0.9259" y2="-0.12" gradientTransform="matrix(-13.4976 56.9909 -42.43 -18.1297 166.3865 238.2371)">
		<stop  offset="0" style="stop-color:#AACE36"/>
		<stop  offset="1" style="stop-color:#2FA042"/>
	</linearGradient>
	<path class="st2" d="M203.6,303l-7.6-3.8l-0.1,0l0,0l0,0l0,0l0,0l0,0l0,0l0,0l0,0l-0.1-0.1l0,0l0,0l0,0l0,0l0,0l0,0l0,0
		c-33.2-17.4-57.4-49.6-64-87.7c5.9,1.8,12.2,2.8,18.6,3.1c1.2,0.1,2.4,0.1,3.6,0.1c12.5,0,24.3-3,34.9-8.3
		C186,239.5,191.3,272.7,203.6,303"/>
	
		<linearGradient id="SVGID_2_" gradientUnits="userSpaceOnUse" x1="1.968368e-002" y1="-5.659151e-003" x2="0.9621" y2="-5.659151e-003" gradientTransform="matrix(192.9304 46.4724 -29.1617 307.456 180.4451 274.9238)">
		<stop  offset="0" style="stop-color:#79A933"/>
		<stop  offset="0.13" style="stop-color:#70A333"/>
		<stop  offset="0.34" style="stop-color:#559332"/>
		<stop  offset="0.58" style="stop-color:#277B2F"/>
		<stop  offset="0.86" style="stop-color:#005F27"/>
		<stop  offset="1" style="stop-color:#005020"/>
	</linearGradient>
	<path class="st3" d="M228,162.7l-4.1-2c-0.2-0.1-0.5-0.2-0.7-0.4h0l0,0l0,0l0,0l0,0l0,0l0,0l0,0l0,0l0,0l0,0l0,0l0,0l0,0l0,0l0,0
		c-7.9-4.1-14.6-10.1-19.6-17.4c-8.3,20.8-13.1,42.1-14.8,63.4c14.1-7.1,25.8-18.4,33.3-32.3L228,162.7z M368,285.7
		c-28.9,19.1-63.5,30.2-100.4,30.2c-2.8,0-5.6-0.1-8.5-0.2c-16.1-0.7-31.7-3.6-46.4-8.2l63.4,31.8c17.4,8.5,29.5,26.3,29.5,47v0.1
		l0,0.1v0.2l0,0v0.1l0,0v0.1l0,0v0.1l0,0v0l0,0.1v0c-0.2,13.5-5.5,25.7-14.1,34.9c-3.9,4.2-8.5,7.7-13.7,10.4l15.8-8l8.8-4.5
		c40.4-20.2,68.1-61.9,68.1-110L368,285.7z"/>
	
		<linearGradient id="SVGID_3_" gradientUnits="userSpaceOnUse" x1="3.320403e-002" y1="2.098087e-003" x2="0.9757" y2="2.098087e-003" gradientTransform="matrix(96.8565 162.56 -191.0404 82.4171 208.8702 157.6106)">
		<stop  offset="0" style="stop-color:#79AB35"/>
		<stop  offset="0.53" style="stop-color:#7CBA3D"/>
		<stop  offset="1" style="stop-color:#00AA4B"/>
	</linearGradient>
	<path class="st4" d="M267.5,315.9c-2.8,0-5.6-0.1-8.5-0.2c-16.1-0.7-31.7-3.6-46.4-8.2l-9.1-4.5c-12.3-30.3-17.6-63.5-15.1-96.9
		c14.1-7.1,25.8-18.4,33.3-32.3l6.2-11.1l76,38.1c2.8,1.4,5.4,3,8.1,4.6l0,0l0,0l0,0l0,0c28.4,17.6,49,46.4,55.8,80.3
		C339,304.8,304.5,315.9,267.5,315.9"/>
</g>
</svg>
