<?xml version="1.0" encoding="UTF-8"?>
<svg width="112px" height="113px" viewBox="0 0 112 113" version="1.1" xmlns="http://www.w3.org/2000/svg" xmlns:xlink="http://www.w3.org/1999/xlink">
    <!-- Generator: Sketch 63.1 (92452) - https://sketch.com -->
    <title>Group</title>
    <desc>Created with Sketch.</desc>
    <g id="Page-1" stroke="none" stroke-width="1" fill="none" fill-rule="evenodd">
        <g id="Group" transform="translate(0.591371, 0.397054)" fill-rule="nonzero">
            <path d="M54.9187854,0.000919273888 C59.5024384,-0.0203790261 64.2815484,0.327943974 68.8875354,1.09466927 C76.1638054,2.30739187 82.2937854,7.76583037 82.2937854,15.0321694 L82.2937854,15.0321694 L82.2937854,40.5634194 C82.2937854,48.0502554 76.3424864,54.1884194 68.8875354,54.1884194 L68.8875354,54.1884194 L42.1062854,54.1884194 C33.0134294,54.1884214 25.3562854,61.9947674 25.3562854,70.8446694 L25.3562854,70.8446694 L25.3562854,83.0946694 L16.1375354,83.0946694 C8.34507842,83.0946694 3.79346352,77.4387714 1.88753522,69.5009194 C-0.683479881,58.8369424 -0.574284781,52.4638854 1.88753522,42.2509194 C4.02177622,33.3408864 10.8450764,28.6571694 18.6375354,28.6571694 L18.6375354,28.6571694 L55.5125354,28.6571694 L55.5125354,25.2509194 L28.7000354,25.2509194 L28.7009235,14.7573373 C28.7504009,7.19518671 30.8951434,3.07530993 42.1062854,1.09466927 C45.9578464,0.413136974 50.3351324,0.0222175739 54.9187854,0.000919273888 Z M40.4187854,8.21966937 C37.6393094,8.21966937 35.3875354,10.5183164 35.3875354,13.3446694 C35.3875354,16.1610044 37.6393094,18.4384194 40.4187854,18.4384194 C43.1883324,18.4384194 45.4500354,16.1610054 45.4500354,13.3446694 C45.4500354,10.5183154 43.1883324,8.21966937 40.4187854,8.21966937 Z" id="path1948" fill="#306998"></path>
            <path d="M85.6375354,28.6571694 L85.6375354,40.5634194 C85.6375354,49.7941744 77.8116404,57.5634184 68.8875354,57.5634194 L42.1062854,57.5634194 C34.7704524,57.5634194 28.7000354,63.8419024 28.7000354,71.1884194 L28.7000354,96.7196664 C28.7000354,103.986006 35.0186234,108.259986 42.1062854,110.344666 C50.5936164,112.840276 58.7325224,113.291296 68.8875354,110.344666 C75.6376904,108.390276 82.2937884,104.457056 82.2937854,96.7196664 L82.2937854,86.5009194 L55.5125354,86.5009194 L55.5125354,83.0946694 L82.2937854,83.0946694 L95.7000354,83.0946694 C103.492499,83.0946694 106.396289,77.6592614 109.106279,69.5009194 C111.905609,61.1020334 111.786499,53.0251434 109.106279,42.2509194 C107.180499,34.4934784 103.502409,28.6571694 95.7000354,28.6571694 L85.6375354,28.6571694 Z M70.5750354,93.3134194 C73.3545134,93.3134194 75.6062854,95.5908364 75.6062854,98.4071664 C75.6062854,101.233516 73.3545104,103.532166 70.5750354,103.532166 C67.8054854,103.532166 65.5437854,101.233516 65.5437854,98.4071664 C65.5437854,95.5908364 67.8054824,93.3134194 70.5750354,93.3134194 Z" id="path1950" fill="#FFD43B"></path>
        </g>
    </g>
</svg>