<?xml version="1.0" encoding="UTF-8"?>
<svg width="1683px" height="382px" viewBox="0 0 1683 382" version="1.1" xmlns="http://www.w3.org/2000/svg" xmlns:xlink="http://www.w3.org/1999/xlink">
    <!-- Generator: Sketch 63.1 (92452) - https://sketch.com -->
    <title>cognos</title>
    <desc>Created with Sketch.</desc>
    <g id="Page-1" stroke="none" stroke-width="1" fill="none" fill-rule="evenodd">
        <g id="cognos" fill="#B01842" fill-rule="nonzero">
            <path d="M1682.06751,66.9449667 C1682.2979,76.7547305 1678.55351,86.2411472 1671.68504,93.24891 C1664.81658,100.256673 1655.40724,104.190756 1645.59483,104.15755 C1625.25349,103.938472 1608.93262,87.2866003 1609.12215,66.9449667 C1609.11344,60.4986106 1610.84322,54.1691906 1614.12932,48.6232788 L1614.12932,48.5663791 C1620.69625,37.44675 1632.62413,30.5968603 1645.53793,30.5291895 L1645.59483,30.5291895 C1666.3632,30.5291895 1682.06751,46.9162892 1682.06751,66.9449667 L1682.06751,66.9449667 Z M1666.1925,88.1685368 C1671.60542,82.4366544 1674.58348,74.8283133 1674.49985,66.9449667 L1674.49985,66.888067 C1674.56131,59.2085047 1671.53385,51.8264408 1666.09806,46.4013492 C1660.66227,40.9762576 1653.27426,37.9633576 1645.59483,38.0399436 L1645.53793,38.0399436 C1635.27786,38.1247901 1625.81575,43.5903463 1620.61588,52.4355555 C1618.04296,56.8379944 1616.68791,61.8458114 1616.68981,66.9449667 C1616.58384,78.715187 1623.55777,89.3973428 1634.37611,94.0355484 C1645.19444,98.6737539 1657.74005,96.3603177 1666.1925,88.1685368 L1666.1925,88.1685368 Z" id="Shape"></path>
            <path d="M1644.85513,46.7455903 C1649.5209,46.7455903 1654.98327,46.7455903 1658.85245,50.6147666 C1663.51822,53.7442474 1665.8511,67.7415618 1654.98327,72.4073332 L1663.51822,87.2012427 L1651.85379,87.2012427 L1644.85513,74.0005235 L1639.39277,74.0005235 L1639.39277,87.2012427 L1628.52493,87.2012427 L1628.52493,46.7455903 L1644.85513,46.7455903 L1644.85513,46.7455903 Z M1639.39277,55.280538 L1639.39277,65.4086761 L1642.52225,65.4086761 C1646.39142,65.4086761 1647.98461,65.4086761 1649.5209,64.6120809 C1651.85379,63.8154858 1652.65039,62.2791952 1652.65039,60.7429046 C1652.65039,54.7115415 1647.13112,55.280538 1643.31884,55.280538 L1639.39277,55.280538 Z M1104.87744,256.819105 C1126.67,319.067324 1179.52978,363.392152 1241.0383,363.392152 C1252.75963,363.392152 1262.83087,361.855862 1273.7556,358.726381 L1104.87744,256.819105 L1104.87744,256.819105 Z M1095.5459,237.416323 L1095.5459,215.623757 C1097.08219,224.101805 1097.87878,231.953957 1100.21167,239.749209 L1287.75292,354.117509 C1322.7462,340.91679 1352.33402,312.125566 1369.46082,275.53909 L1369.46082,355.6538 L1542.20816,355.6538 C1542.20816,355.6538 1625.45235,344.785966 1625.45235,262.281471 C1625.45235,237.359424 1616.9174,217.160047 1604.45638,201.569543 L1449.57553,201.569543 L1525.02447,235.880033 C1525.02447,235.880033 1539.07868,245.951271 1535.1526,256.876004 C1530.54373,267.743838 1523.48818,271.669914 1510.23056,273.206204 C1497.76953,274.002799 1383.40123,273.206204 1370.99711,273.206204 C1381.12525,251.413638 1386.53071,227.231286 1388.1239,201.569543 L1306.416,201.569543 C1303.28652,251.413638 1275.2919,290.333 1241.0383,290.333 C1206.78471,290.333 1178.79009,251.413638 1176.4572,201.569543 L1036.42716,201.569543 L1095.5459,237.416323 Z M983.510481,201.569543 L908.004643,201.569543 L929.000615,233.490247 L983.510481,201.569543 Z M140.030043,381.315543 L283.246467,381.315543 L283.246467,303.533719 C310.5014,339.3236 350.160457,362.652457 394.485286,362.652457 C463.732162,362.652457 521.31461,307.402895 536.905114,234.286843 C544.278066,301.710698 599.834758,353.615209 667.603614,356.393495 L715.854519,356.393495 L804.617976,303.476819 L804.617976,201.569543 L726.779252,201.569543 L726.779252,284.870633 L675.398867,284.870633 C675.398867,284.870633 619.409609,285.667228 615.483533,201.569543 L459.862986,201.626442 C456.733505,250.617043 428.738876,289.536404 394.485286,289.536404 C361.028291,289.536404 333.033662,250.617043 329.904181,201.569543 L248.196281,201.569543 C249.732572,238.952614 262.193595,273.9459 281.653276,301.200833 L140.030043,301.200833 C140.030043,301.200833 92.5757334,288.000114 89.4462526,201.569543 L0,201.569543 C4.66577145,375.056581 140.030043,381.315543 140.030043,381.315543 Z M738.386781,356.393495 L804.561076,356.393495 L804.561076,316.734438 L738.386781,356.393495 Z M89.4462526,189.905114 C90.2428477,98.1259758 140.030043,82.5354712 140.030043,82.5354712 L282.449871,82.5354712 C259.971272,113.805668 247.979491,151.394523 248.196281,189.905114 L329.904181,189.905114 C330.700776,137.785033 359.492,95.7930901 394.485286,95.7930901 C430.275167,95.7930901 459.066391,137.785033 459.806086,189.905114 L615.426634,189.905114 C616.223229,99.6622664 660.548057,96.5327856 660.548057,96.5327856 L788.970572,95.7361905 L739.183376,28.8222 L669.139905,28.8222 C669.139905,28.8222 557.901086,28.8222 536.905114,150.928853 C521.31461,77.0731047 463.675262,22.6201379 394.485286,22.6201379 C350.160457,22.6201379 309.704805,45.9489952 283.246467,82.5354712 L223.274234,0.0878758222 L140.030043,0.827571295 C140.030043,0.827571295 1.5362906,10.1591142 0,189.848214 L89.4462526,189.848214 L89.4462526,189.905114 Z M1430.85554,189.905114 L1594.27134,189.905114 C1567.01641,161.910485 1530.48683,150.246057 1530.48683,150.246057 L1486.8448,130.786376 C1486.8448,130.786376 1477.51326,125.324009 1480.64274,108.993809 C1482.97562,95.7930901 1503.175,97.3293807 1503.175,97.3293807 L1607.47206,96.5327856 L1550.68621,24.9530236 C1550.68621,24.9530236 1466.58852,24.9530236 1440.92678,35.8208571 C1415.26504,45.9489952 1383.34433,80.1456859 1390.34299,131.526071 C1393.52937,156.448119 1412.19246,175.8509 1430.85554,189.905114 L1430.85554,189.905114 Z M1274.4953,28.0825045 C1263.60189,24.9453622 1252.31747,23.374357 1240.98141,23.4158982 C1180.32638,23.4158982 1128.2063,66.2052712 1105.61713,127.656895 L1274.4953,28.0825045 L1274.4953,28.0825045 Z M813.892619,313.604957 L813.892619,356.393495 L888.544962,356.393495 L888.544962,269.280128 L813.892619,313.604957 Z M888.544962,255.282814 L888.544962,201.569543 L813.892619,201.569543 L813.892619,299.607643 L888.544962,255.282814 L888.544962,255.282814 Z M999.044086,179.776976 L888.544962,28.8790996 L813.892619,28.8790996 L813.892619,189.905114 L888.544962,189.905114 L888.544962,171.981724 L900.209391,189.848214 L992.842024,189.848214 C994.128259,186.068652 996.247893,182.626678 999.044086,179.776976 L999.044086,179.776976 Z M1019.30036,28.8222 L1019.30036,171.981724 C1021.63325,172.778319 1024.02303,173.518014 1025.55932,175.111205 L1095.5459,133.119262 L1095.5459,28.8222 L1019.30036,28.8222 Z M1289.23231,32.7482759 L1101.00826,143.987095 C1098.75482,152.711659 1096.93183,161.541771 1095.5459,170.445433 L1095.5459,147.116576 L1032.50108,184.442748 C1033.42258,186.198676 1034.20267,188.025246 1034.83397,189.905114 L1176.4003,189.905114 C1177.1969,137.785033 1205.98812,96.5327856 1240.98141,96.5327856 C1276.82819,96.5327856 1304.82281,137.785033 1306.35911,189.905114 L1388.06701,189.905114 C1386.53071,116.732162 1346.07506,55.280538 1289.23231,32.7482759 L1289.23231,32.7482759 Z M1007.57903,216.363452 C1002.62614,214.854383 998.447332,211.49095 995.914605,206.97501 L935.202677,242.82179 L1007.57903,354.06061 L1007.57903,216.363452 L1007.57903,216.363452 Z M1029.4285,210.901086 C1026.29902,213.233971 1023.22644,215.623757 1019.30036,216.420352 L1019.30036,356.450395 L1095.5459,356.450395 L1095.5459,251.413638 L1029.4285,210.901086 Z" id="Shape"></path>
        </g>
    </g>
</svg>