<?xml version="1.0" encoding="UTF-8"?>
<svg width="1261px" height="1379px" viewBox="0 0 1261 1379" version="1.1" xmlns="http://www.w3.org/2000/svg" xmlns:xlink="http://www.w3.org/1999/xlink">
    <!-- Generator: Sketch 63.1 (92452) - https://sketch.com -->
    <title>Group</title>
    <desc>Created with Sketch.</desc>
    <defs>
        <linearGradient x1="25.8951071%" y1="76.4064363%" x2="38.3411716%" y2="69.6673405%" id="linearGradient-1">
            <stop stop-color="#909CA9" offset="0%"></stop>
            <stop stop-color="#FFFFFF" offset="100%"></stop>
        </linearGradient>
        <linearGradient x1="0.167947727%" y1="49.8457052%" x2="18.5944843%" y2="49.8457052%" id="linearGradient-2">
            <stop stop-color="#939FAB" offset="0%"></stop>
            <stop stop-color="#FFFFFF" offset="100%"></stop>
        </linearGradient>
        <radialGradient cx="44.3461988%" cy="43.8808738%" fx="44.3461988%" fy="43.8808738%" r="12.8105072%" gradientTransform="translate(0.443462,0.438809),scale(0.698399,1.000000),rotate(-171.457413),translate(-0.443462,-0.438809)" id="radialGradient-3">
            <stop stop-color="#EE352C" offset="0%"></stop>
            <stop stop-color="#A91D22" offset="100%"></stop>
        </radialGradient>
    </defs>
    <g id="Page-1" stroke="none" stroke-width="1" fill="none" fill-rule="evenodd">
        <g id="Group" transform="translate(0.314437, -0.388986)" fill-rule="nonzero">
            <path d="M795.618859,643.978652 L519.529714,734.131525 L279.336007,840.141481 L212.138277,857.881821 C195.024406,874.160398 177.080055,890.647799 157.672018,907.342099 C136.386498,925.705058 116.561777,942.402244 101.32539,954.503398 C84.4232297,967.860377 59.3808183,992.901826 46.652233,1008.75891 C27.6608797,1032.54838 12.6362027,1057.79865 6.16653622,1077.20862 C-5.31199749,1112.26876 0.325263614,1147.74367 22.445114,1180.50964 C50.8258079,1222.24443 107.380297,1264.81451 173.322202,1293.82167 C206.922511,1308.64138 263.475075,1327.62984 306.045154,1338.27116 C376.787103,1356.21936 513.685554,1375.6274 589.018724,1378.55092 C604.2503,1379.17643 624.703415,1379.17643 625.53582,1378.55092 C627.207367,1377.50392 638.893762,1355.17717 652.460526,1327.42391 C698.788458,1232.88767 732.177057,1144.19656 750.331193,1068.44574 C761.182295,1022.53738 769.737306,961.391673 775.369755,888.981064 C776.833441,868.737734 777.457024,800.915459 776.205048,777.958392 C774.32564,740.396218 770.986395,709.93018 765.773516,680.087725 C764.938224,675.704365 764.726514,671.738651 765.146085,671.53079 C765.97849,670.905283 768.482443,670.070953 802.498473,660.260117 L795.615009,643.978652 L795.615009,643.978652 L795.618859,643.978652 L795.618859,643.978652 Z M732.596628,680.918206 C735.10058,680.918206 741.776183,744.982628 743.444843,785.470249 C743.864414,794.025259 743.652704,799.659634 743.236982,799.659634 C741.569284,799.659634 707.968975,779.836837 683.974529,764.81216 C663.10473,751.664004 623.45625,725.368654 617.196369,720.360749 C615.105251,718.900912 615.313112,718.693052 632.427945,712.84793 C661.432221,703.038056 730.301498,680.918206 732.596628,680.918206 L732.596628,680.918206 Z M591.94321,727.2471 C593.822618,727.2471 598.618813,729.956988 610.097346,737.054086 C653.085071,763.973981 711.518968,796.530174 736.560417,807.383201 C744.280135,810.721483 745.112541,809.467583 727.377975,821.573548 C689.397193,847.449327 642.023221,872.90746 584.008895,898.57634 C573.785224,903.167561 565.230214,906.713705 565.022353,906.713705 C564.606632,906.713705 565.854759,901.499864 567.522456,895.238058 C581.504942,843.271903 589.436371,790.685052 589.855941,748.530695 C590.063802,727.660897 590.063802,727.660897 591.94321,727.038277 C591.523639,727.2471 591.7315,727.2471 591.94321,727.2471 L591.94321,727.2471 Z M562.937009,738.306063 C564.185136,739.556114 563.352731,786.303617 561.682146,799.032202 C557.926217,829.501127 552.08302,857.880858 542.486781,889.812507 C540.19069,897.528376 538.100534,904.001891 537.687699,904.417613 C536.848558,905.459804 508.259041,877.496756 498.868738,866.645654 C482.59016,847.863124 469.8635,829.081556 460.472234,810.718596 C455.67219,801.327331 448.161295,782.965334 448.78584,782.337903 C452.124122,780.042773 562.101717,737.472695 562.937009,738.306063 Z M426.455242,791.937029 C426.663103,791.937029 426.870963,791.937029 427.082673,792.144889 C427.498395,792.562535 428.962081,795.902743 430.214057,799.657709 C436.88966,817.81377 451.912412,844.524841 464.854632,861.637749 C479.044979,880.420279 497.619649,900.451899 513.058123,913.599093 C518.068915,917.772668 522.657249,921.736457 523.281793,922.363889 C524.536656,923.616827 524.95334,923.406079 490.936348,936.346375 C451.499578,951.371052 408.508004,966.395729 359.257511,982.254736 C347.492656,986.047725 335.738532,989.873918 323.995279,993.733269 C322.113946,994.360701 322.741378,993.315623 328.166929,984.761575 C352.581909,946.571008 389.726436,871.654521 410.596235,818.6481 C414.144303,809.465658 417.691408,800.285141 418.31884,798.197872 C419.154132,795.274349 420.195361,794.232158 422.907174,792.770396 C424.367973,792.356599 425.830697,791.937029 426.455242,791.937029 Z M384.72238,809.257797 C385.346925,809.677368 374.703684,832.004117 364.269265,852.455307 C344.025936,891.895926 321.906086,930.713925 292.273415,977.875225 C287.265511,986.012589 282.467391,993.527333 281.83996,994.361663 C280.797769,995.823425 280.378198,995.403854 277.039915,988.936112 C269.944742,974.953626 264.09962,957.005426 260.970161,940.518987 C257.838777,924.240409 258.466208,895.86164 262.015238,878.333011 C264.725127,865.395602 264.519191,865.604426 270.779072,862.473042 C297.490143,848.909164 383.887088,808.423467 384.72238,809.257797 L384.72238,809.257797 Z M744.699706,823.867715 L744.699706,832.631548 C744.699706,879.168303 739.691801,943.024864 732.384918,989.563544 C731.132941,997.700908 730.085939,1004.37651 729.880965,1004.58822 C729.880965,1004.58822 723.829907,1002.92052 716.734734,1000.83037 C685.433404,991.021456 651.417373,976.622286 620.739625,959.722051 C600.494371,948.661163 571.072449,930.503178 571.908704,929.667885 C572.113677,929.460987 580.880398,924.869766 591.104068,919.443252 C632.011261,898.158694 671.24017,875.203551 705.2562,852.457232 C717.98671,843.900297 737.182075,830.129521 741.360461,826.371667 L744.699706,823.867715 Z M227.162953,885.63412 C227.997284,885.63412 227.78846,887.303743 226.536484,894.816562 C225.701192,900.244038 224.659001,910.26081 224.244242,917.144274 C222.57077,947.613198 227.582524,970.15262 242.607201,1001.0363 C246.780776,1009.59324 250.121946,1016.68841 249.910235,1016.89531 C248.448474,1018.14921 110.302858,1058.63587 66.8936379,1070.52916 C53.9562296,1074.07531 42.6894059,1077.20669 41.8502643,1077.41263 C40.3923519,1077.8322 40.1825665,1077.62434 40.8080735,1074.07338 C45.6071553,1043.39948 68.9809065,1003.33143 101.534213,969.523263 C123.238342,946.986729 140.560073,933.840498 170.192743,916.934488 C191.478263,904.833335 224.241355,886.680161 226.745307,885.842944 C226.747232,885.63412 226.955093,885.63412 227.162953,885.63412 L227.162953,885.63412 Z M552.710452,943.85727 C552.918313,943.649409 557.926217,946.364109 563.977275,949.910252 C608.636547,975.787956 670.823486,999.787214 723.826058,1012.09815 L728.628989,1013.14323 L721.949537,1016.89531 C694.196275,1032.33956 603.001211,1070.31842 509.721765,1105.1707 C496.155,1110.17668 482.800908,1115.18747 480.293106,1116.22966 C477.789154,1117.27185 475.493062,1117.89929 475.493062,1117.69143 C475.493062,1117.47972 479.251878,1110.17668 484.048073,1101.20499 C510.133637,1052.3731 536.429949,992.898939 549.785004,951.578912 C551.458476,947.614161 552.498742,944.068017 552.710452,943.85727 L552.710452,943.85727 Z M519.529714,954.710297 C519.741424,954.922969 518.069877,959.301518 515.981646,964.309422 C497.82751,1008.34126 474.034188,1056.3417 443.56815,1110.18053 C435.848432,1123.95516 429.377803,1135.01604 429.166093,1135.01604 C428.961119,1135.01604 422.698351,1131.25723 415.186494,1126.66697 C370.942943,1099.53729 331.71211,1066.14869 306.046116,1033.80228 L302.288263,1029.21106 L321.276729,1023.99337 C389.30879,1005.42255 447.111406,985.389007 504.50215,960.765204 C512.642401,957.424997 519.321853,954.710297 519.529714,954.710297 L519.529714,954.710297 Z M725.709315,1026.70615 C725.709315,1026.70615 725.918138,1026.91497 725.709315,1026.70615 C725.917176,1031.50619 715.273934,1074.49584 706.508176,1105.58642 C699.205142,1131.67199 692.941412,1152.1251 681.466727,1188.22455 C676.458822,1204.08837 672.079311,1217.23171 671.867601,1217.23171 C671.65974,1217.23171 670.407764,1217.02385 669.155788,1216.60909 C607.177672,1205.3365 551.667299,1189.68631 499.49617,1168.8194 C484.886252,1162.97428 464.01934,1153.58301 462.767364,1152.54082 C462.351642,1152.11933 474.873329,1146.27998 490.732336,1139.39267 C585.683329,1097.86478 684.181427,1050.70156 717.98671,1030.46208 C721.950499,1027.95716 725.081883,1026.70615 725.709315,1026.70615 L725.709315,1026.70615 Z M249.702375,1042.98472 C250.120021,1043.40045 223.61681,1081.59101 186.469396,1133.55236 C173.531988,1151.70842 158.507311,1172.99298 152.873899,1180.92248 C147.238562,1188.85295 138.683552,1201.37463 133.883508,1208.88745 L125.114863,1222.45229 L115.723597,1214.52279 C104.66271,1205.33842 85.4663828,1185.72349 76.91041,1174.87142 C58.9622098,1152.54467 46.8610561,1128.96306 42.061012,1107.47064 C39.7649203,1097.45194 39.7649203,1092.44115 41.849302,1091.81853 C44.9787613,1090.9842 100.697958,1077.83605 152.871974,1065.73008 C181.879137,1059.05448 215.474634,1051.12498 227.578675,1048.20338 C239.683678,1045.27697 249.494514,1042.98472 249.702375,1042.98472 L249.702375,1042.98472 Z M276.412484,1053.21032 L283.088086,1060.72218 C313.142252,1094.32056 343.818075,1119.158 380.963565,1140.85635 C387.643017,1144.61517 392.649959,1147.95153 392.230388,1148.1642 C390.773438,1149.20639 263.264328,1194.48636 204.207811,1214.93851 C171.028997,1226.62394 143.689532,1236.01424 143.483596,1236.01424 C143.275735,1236.01424 141.396327,1234.76419 139.306172,1233.30243 L135.552168,1230.58869 L141.603226,1221.82582 C161.218161,1193.44417 185.846776,1162.35166 239.477742,1097.65981 L276.412484,1053.21032 Z M442.944567,1172.36651 C443.149541,1172.15961 452.331983,1175.49597 463.599769,1179.67435 C490.732336,1189.89802 512.22283,1196.36576 541.024057,1203.67072 C576.500887,1212.64531 627.835761,1221.4101 658.096825,1223.91309 C662.688046,1224.32881 665.191999,1224.74838 664.356706,1225.37485 C662.89302,1226.21014 632.220084,1236.43574 609.681625,1243.53091 C573.785224,1254.79774 464.228163,1287.14318 374.912507,1312.81303 C358.426068,1317.61211 344.234759,1321.57782 343.400429,1321.78472 C341.316047,1322.20429 334.42681,1320.32296 334.42681,1319.48863 C334.42681,1319.07387 339.434715,1312.60516 345.487698,1305.50903 C375.536089,1269.61455 405.380469,1229.54843 430.214057,1191.56765 C437.098483,1181.13034 442.944567,1172.57533 442.944567,1172.36651 Z M406.215033,1173.41255 C406.420735,1173.62041 391.605844,1197.40892 365.731989,1238.31034 C354.669177,1255.6311 342.356314,1275.247 337.972953,1282.13432 C333.799378,1288.81184 327.539497,1299.24819 323.993354,1305.08946 L317.940371,1315.73366 L314.810912,1314.89837 C307.296168,1312.8111 254.500494,1294.23643 240.518008,1288.60302 C223.196277,1281.71571 205.250002,1273.37048 191.893022,1266.27531 C175.200648,1257.30073 154.333736,1243.94375 156.001433,1243.52899 C156.418117,1243.32113 185.008597,1235.5966 219.439386,1226.20822 C310.844236,1201.37175 361.552641,1186.9745 394.736266,1176.54104 C400.789248,1174.6626 406.005014,1173.20084 406.215033,1173.41255 Z M666.024404,1234.34462 L666.232265,1234.34462 C667.067557,1236.43382 633.263237,1330.34069 620.945562,1359.9724 C618.236635,1366.64993 617.196369,1368.32244 615.732683,1368.10976 C612.184615,1367.90479 563.145832,1361.01748 533.30049,1356.63412 C481.341071,1348.70461 394.109796,1333.46823 372.199731,1328.46225 L367.191826,1327.42006 L398.281447,1320.32007 C465.062493,1305.29539 497.199116,1297.15803 529.752422,1287.14126 C570.864588,1274.62053 611.56007,1258.96843 652.668387,1239.77114 C659.137091,1236.84857 664.563605,1234.55345 666.024404,1234.34462 Z" id="Shape" fill="url(#linearGradient-1)"></path>
            <path d="M510.974703,0.398399812 C506.383482,-0.224220184 432.298439,26.4868512 384.511633,45.8920015 C320.026678,72.189276 269.945704,97.2326497 239.059133,118.931005 C227.583487,127.073181 213.18143,141.470426 210.889187,147.103838 C210.054857,149.191106 209.635286,151.695059 209.635286,154.199011 L237.600259,180.702222 L304.168633,201.987742 L462.560465,230.369398 L643.69573,261.46383 L645.575138,245.812684 C644.950594,245.812684 644.531023,245.604823 643.910327,245.604823 L620.114118,241.84697 L615.317924,233.291959 C590.692196,189.884664 563.563479,136.043912 547.704472,99.7327529 C535.393532,71.5599198 523.706176,39.0085381 517.235547,15.6347868 C513.687479,1.4444399 513.271757,0.610109857 510.979515,0.402249085 L510.979515,0.397437493 L510.974703,0.397437493 L510.974703,0.398399812 Z M507.631609,11.0445281 L507.846206,11.0445281 C508.05118,11.2504642 508.886472,17.0975108 509.722727,23.9800119 C513.266946,53.1998473 519.741424,81.3678688 529.965094,111.836794 C537.684812,134.792899 537.684812,133.541885 528.713118,130.827185 C507.427598,124.985912 412.059921,108.499473 342.98567,98.9003474 C331.924782,97.4385858 322.533517,95.9787488 322.533517,95.7708881 C321.699187,94.936558 372.407592,68.4314227 394.737228,57.9998914 C423.326745,44.8498107 501.791299,12.0867189 507.631609,11.0445281 L507.631609,11.0445281 Z M306.461838,104.533759 L314.604014,107.243648 C358.84179,122.271212 470.067511,143.557694 531.423969,148.565599 C538.308395,149.192069 544.154479,149.8195 544.359453,149.8195 C544.567314,150.027361 538.727966,153.157783 531.213221,156.703926 C501.583438,171.520742 469.027245,189.676803 446.488786,203.659289 C439.813183,207.830939 433.758276,211.172109 432.925871,211.172109 C432.090578,211.172109 427.710105,210.336817 423.118884,209.710347 L414.771734,208.456446 L393.905785,188.004294 C357.176979,152.321528 328.377677,124.776127 317.316789,114.339784 L306.461838,104.533759 L306.461838,104.533759 Z M298.117575,111.001501 L327.541422,147.731269 C343.60829,167.973637 359.885905,187.797395 363.43686,192.177869 C366.981079,196.563153 369.904602,200.112184 369.696741,200.320044 C368.861449,200.945551 327.127625,192.8053 305.003925,187.79932 C282.257606,182.580667 272.867303,180.076715 258.885779,175.696242 L247.407245,171.938388 L247.407245,169.014865 C247.615106,155.032379 265.355446,134.165467 295.404799,112.881871 L298.117575,111.001501 Z M548.119231,161.086324 C548.955485,161.086324 549.995752,162.963807 552.499704,168.598181 C559.594877,184.248365 581.719539,226.404647 587.140279,234.542011 C588.814713,237.257673 591.7315,237.465534 562.31054,232.66549 C491.568591,221.185032 468.819384,217.432952 468.819384,217.015306 C468.819384,216.807445 470.906653,215.345684 473.619428,213.883922 C495.53238,201.782768 517.651268,186.338521 537.269091,169.852082 C542.069135,165.886368 546.451533,162.130439 547.283938,161.503008 C547.491799,161.086324 547.91137,160.878463 548.119231,161.086324 Z" id="Shape" fill="url(#linearGradient-2)"></path>
            <path d="M212.345175,144.182239 C212.345175,144.182239 207.756841,151.489123 212.138277,162.341187 C214.853939,169.01679 222.78248,177.154154 231.754174,185.503228 C231.754174,185.503228 324.617899,276.070861 335.887609,289.011156 C387.221521,348.275534 409.552119,406.707506 411.639388,487.260291 C412.891364,539.013774 403.080528,584.506414 378.666511,637.304012 C335.260178,732.047144 243.646505,836.598225 102.368543,952.626877 L123.031443,945.739565 C136.386498,935.720868 154.542559,925.081476 197.112637,901.707724 C295.40095,847.864086 406.004052,798.406695 541.649564,747.488505 C736.972289,674.029931 1058.14028,588.050632 1240.94324,560.090471 L1259.93652,557.166948 L1257.01299,552.575727 C1240.32158,526.698023 1228.84016,510.631156 1215.06554,493.51921 C1175.00133,443.852034 1126.38116,403.578047 1066.90315,370.187524 C985.099349,324.487986 879.293405,288.803295 745.322326,262.300085 C720.072054,257.289293 664.56168,247.691129 619.486687,240.804779 C523.908262,225.991812 462.138008,215.764292 394.108834,204.077898 C369.694817,199.902398 333.171947,193.643479 308.964828,188.427714 C296.444103,185.712051 272.447732,180.07864 253.666164,173.609935 C238.641487,167.763851 216.936396,161.920654 212.345175,144.182239 L212.345175,144.182239 Z M266.188813,196.355293 C266.394749,196.149357 269.733032,197.397483 274.118317,198.859245 C282.04782,201.569134 292.272453,204.700518 304.379381,208.041687 C313.538449,210.560979 322.720643,212.995428 331.924782,215.344721 C344.445507,218.473218 354.878,221.395779 355.085861,221.395779 C356.549547,222.857541 377.627207,290.257358 384.72238,316.135062 C387.431307,325.945898 389.522425,334.291123 389.313601,334.291123 C389.099004,334.502833 386.806762,330.952841 384.094949,326.153759 C359.678044,283.16411 321.071755,239.549916 276.412484,204.48977 C270.572174,200.320044 266.188813,196.563153 266.188813,196.355293 L266.188813,196.355293 Z M368.860486,224.735987 C369.904602,224.735987 374.495823,225.362456 380.12731,226.61347 C415.60414,234.542973 479.253802,246.647014 519.945435,253.534327 C526.832748,254.576517 532.260224,255.831381 532.260224,256.24614 C532.260224,256.665711 529.753384,258.123623 526.622,259.79517 C519.738537,263.341313 491.981425,279.825827 482.80187,286.087633 C459.63598,301.529956 438.77003,318.224255 423.743429,333.248932 C417.692371,339.301915 412.472756,344.30982 412.472756,344.30982 C412.472756,344.30982 411.224629,340.763677 410.176664,336.378392 C402.668656,307.371229 387.014623,264.381579 372.824276,234.124365 C370.528184,229.326245 368.648776,224.942885 368.648776,224.527163 C368.648776,224.943847 368.648776,224.735987 368.860486,224.735987 L368.860486,224.735987 Z M549.579068,259.168701 C550.831044,259.584422 552.918313,266.680558 557.090925,282.330742 C564.81353,312.591806 568.361598,346.398051 567.109622,377.909166 C566.690051,386.673962 566.274329,394.811326 565.854759,395.857366 L565.230214,397.941748 L554.379112,394.395605 C532.049476,387.300431 495.740241,376.655265 464.647734,367.892394 C446.906432,363.09235 432.511111,358.709952 432.511111,358.293268 C432.511111,357.039367 458.388815,331.163588 469.447778,321.356602 C490.520626,302.78097 547.69966,258.541269 549.579068,259.168701 L549.579068,259.168701 Z M563.978238,261.253082 C564.605669,260.630462 650.37422,275.443429 689.398155,282.957211 C718.407243,288.590623 760.559675,297.356381 763.062665,298.401459 C764.314642,298.81718 759.931281,301.321133 745.948795,307.581014 C690.857992,332.416527 649.953687,354.742313 609.264941,381.873918 C598.6217,388.969091 589.647118,394.811326 589.439258,394.811326 C589.231397,394.811326 589.022574,388.761231 589.022574,381.456272 C589.022574,341.807792 581.092108,301.739741 566.481228,267.933497 C565.021391,264.594252 563.769415,261.464792 563.978238,261.253082 L563.978238,261.253082 Z M785.808023,305.078986 C786.435454,305.704493 783.720754,322.60954 781.216802,332.624388 C773.704944,363.718819 753.463539,409.840815 728.632838,453.244261 C724.246591,460.965904 720.282802,467.226747 719.862268,467.434608 C719.449434,467.642469 713.814097,464.511085 707.343469,460.755156 C683.137312,446.564809 655.59191,433.209755 625.53967,420.687105 C617.195407,417.140962 609.889486,414.217439 609.680663,413.803642 C608.216976,412.549741 675.414707,368.100255 710.891536,346.814735 C739.064369,329.703751 784.97273,304.242732 785.808023,305.078986 L785.808023,305.078986 Z M801.66703,307.581976 C803.546438,307.581976 841.52722,318.017357 861.349054,323.860554 C910.391686,338.46951 966.734465,359.127598 1003.46327,375.821898 L1018.69485,382.711135 L1008.05545,385.213163 C918.324076,405.871252 841.52722,429.664574 767.443139,459.713928 C761.391118,462.21788 755.964605,464.305149 755.55177,464.305149 C755.1322,464.305149 757.219468,459.506067 759.932244,453.660945 C782.261879,406.290822 796.661049,356.832469 800.205268,314.676187 C800.41794,310.710473 801.039598,307.581976 801.66703,307.581976 L801.66703,307.581976 Z M423.535568,394.395605 C424.160113,393.768173 453.168238,400.656448 468.819384,405.034997 C492.608857,411.715411 543.108439,428.616609 543.108439,429.87051 C543.108439,430.078371 537.475989,434.878415 530.800387,440.723537 C503.462846,463.469856 477.166534,487.465265 445.653494,517.93419 C436.262229,526.910696 428.33465,534.21373 427.918928,534.21373 C427.499357,534.21373 427.294384,532.958867 427.499357,531.290207 C432.298439,496.230061 431.258173,451.15603 424.579683,405.454568 C423.951289,399.609446 423.326745,394.603466 423.535568,394.395605 L423.535568,394.395605 Z M1033.09979,395.023036 C1033.51262,395.437796 1019.74185,417.140962 1010.97801,429.451901 C998.459215,447.398177 980.089519,471.192461 938.561632,523.362628 C916.654454,550.906105 892.025839,582.002461 883.8904,592.435917 C875.539401,602.869373 868.655937,611.632244 868.444227,611.632244 C868.236366,611.632244 865.52744,607.87824 862.603917,603.287981 C839.230166,568.227836 811.265193,537.55105 778.084455,510.005649 C771.824574,504.786996 764.941111,499.152622 762.645019,497.483 C760.348928,495.81434 758.46952,494.144717 758.46952,493.936856 C758.46952,493.312312 793.9425,478.074962 820.867206,467.225785 C868.03043,448.025608 932.297901,425.071428 980.508128,410.25365 C1005.75936,402.325108 1032.68022,394.603466 1033.09979,395.023036 L1033.09979,395.023036 Z M1049.16666,399.193724 C1049.99906,398.986826 1055.00985,401.490778 1061.06188,405.034997 C1111.77317,434.04216 1161.43649,471.398397 1200.67214,509.796826 C1211.7311,520.649852 1239.06864,549.030546 1238.64907,549.238407 C1238.64907,549.238407 1229.04995,550.072737 1217.78312,550.906105 C1129.9273,557.586519 1017.44961,576.156377 909.349495,602.240979 C902.046461,603.908677 895.578719,605.370438 895.159148,605.370438 C894.746313,605.370438 902.881753,597.233074 913.109273,587.426088 C976.547225,526.282302 1005.55631,487.676013 1039.77732,418.80866 C1044.57544,408.585952 1048.75094,399.821156 1049.16666,399.193724 C1048.9588,399.193724 1048.9588,399.193724 1049.16666,399.193724 L1049.16666,399.193724 Z M584.428466,446.776519 C587.351989,447.399139 614.480707,460.133498 634.930935,470.356207 C653.712503,479.743622 681.886298,494.772149 683.346135,496.0222 C683.553996,496.230061 673.535299,501.447751 661.228209,507.500734 C621.992564,527.116632 588.396104,545.687452 553.334996,566.973935 C543.319187,573.026918 534.972037,578.037709 534.764176,578.037709 C533.928884,578.037709 534.136745,577.198568 539.772081,566.973935 C558.554611,532.752931 573.577364,491.85055 582.136223,451.99036 C582.967666,448.860901 583.803921,446.776519 584.428466,446.776519 L584.428466,446.776519 Z M557.298786,451.782499 C557.926217,452.409931 550.831044,478.075925 546.450571,492.058411 C537.891711,518.561622 523.493503,551.741397 509.513904,576.783808 C506.17081,582.624119 501.163867,591.181054 498.451092,595.980136 L493.235326,604.327285 L481.548932,593.061424 C467.986016,579.913268 456.923204,571.774941 442.735744,564.46902 C437.097521,561.550308 432.717048,559.043469 432.717048,558.62871 C432.717048,556.959087 468.401738,524.613642 495.739279,501.240853 C515.354214,484.336768 556.674241,451.156993 557.298786,451.782499 L557.298786,451.782499 Z M723.206325,520.023383 L733.432882,526.698986 C756.799897,541.935373 784.345299,562.175815 805.426808,579.913268 C817.318176,589.719292 840.272356,610.382193 844.867427,615.390097 L847.36753,618.10576 L830.468257,622.903879 C734.889832,649.404203 661.016499,672.985815 574.82934,704.707678 C565.230214,708.253822 557.090925,711.17542 556.463493,711.17542 C555.215367,711.17542 554.168364,712.217611 575.665595,692.391928 C630.759284,641.68641 679.588282,585.755503 715.900404,531.289244 L723.206325,520.023383 L723.206325,520.023383 Z M679.590206,530.874485 C680.005928,531.290207 651.417373,571.565156 634.303503,594.312438 C613.853275,621.442118 577.541153,666.933795 552.499704,696.56454 C542.068173,708.879329 533.096478,719.103962 532.676908,719.313747 C532.049476,719.521608 531.841615,716.392148 531.841615,711.592104 C531.841615,686.338945 525.373873,659.419051 514.1032,636.465832 C509.303156,626.866707 508.467864,624.570615 509.514866,623.528424 C513.478656,619.979394 574.204795,585.337857 612.601299,564.679768 C638.47804,550.907067 678.958925,530.456839 679.590206,530.874485 L679.590206,530.874485 Z M415.812001,595.566339 C416.439432,595.566339 421.239476,598.068367 426.66599,600.99189 C440.021044,608.294924 451.916262,616.433251 462.558541,625.199971 C462.974262,625.615693 457.550636,630.000015 450.455462,635.213856 C430.629779,649.404203 400.580425,672.152447 383.05372,686.134934 C364.684987,700.742927 364.063329,701.159611 366.147711,698.030151 C379.922336,676.952492 386.8058,665.057274 394.112683,649.824736 C400.580425,636.261821 407.048167,620.192066 411.639388,606.20958 C413.308048,600.15756 415.396279,595.566339 415.812001,595.566339 Z M486.141115,650.657142 C487.181381,650.451206 488.437207,652.326764 494.068694,660.675838 C505.963912,678.410404 515.146354,702.203726 517.445332,721.401978 L517.858167,725.577477 L489.272499,736.638365 C438.141636,756.461161 390.982262,776.078984 359.049651,790.68409 C350.078919,794.859589 334.42681,802.370484 324.203139,807.382239 C313.976582,812.59608 305.629432,816.561794 305.629432,816.353933 C305.629432,816.146072 312.097174,811.346028 320.026678,805.500906 C382.427251,760.219015 436.473939,710.549913 476.957711,660.884661 C481.341071,655.666009 485.307747,650.865965 485.721544,650.658104 L486.141115,650.657142 Z M453.79567,658.58857 C454.630962,659.4229 430.841489,686.341832 414.563874,702.827308 C374.287962,743.940437 334.428735,776.078984 284.969419,807.382239 C278.709538,811.346028 273.076126,814.892171 272.448694,815.311742 C270.986933,816.146072 272.864416,814.057841 294.568545,790.476229 C308.34317,775.659413 318.775664,763.138689 330.670881,747.69829 C338.600385,737.474619 340.062146,736.012858 351.541643,727.870682 C382.218428,705.749869 452.960377,657.752315 453.79567,658.58857 Z" id="Shape" fill="url(#radialGradient-3)"></path>
        </g>
    </g>
</svg>