<?xml version="1.0" encoding="UTF-8"?>
<svg width="1024px" height="385px" viewBox="0 0 1024 385" version="1.1" xmlns="http://www.w3.org/2000/svg" xmlns:xlink="http://www.w3.org/1999/xlink">
    <!-- Generator: Sketch 63.1 (92452) - https://sketch.com -->
    <title>Artboard</title>
    <desc>Created with Sketch.</desc>
    <defs>
        <linearGradient x1="50%" y1="0%" x2="50%" y2="100%" id="linearGradient-1">
            <stop stop-color="#CFCFCF" offset="0%"></stop>
            <stop stop-color="#FCFCFC" stop-opacity="0" offset="100%"></stop>
        </linearGradient>
        <filter x="-35.2%" y="-89.1%" width="170.4%" height="278.1%" filterUnits="objectBoundingBox" id="filter-2">
            <feGaussianBlur stdDeviation="19" in="SourceGraphic"></feGaussianBlur>
        </filter>
    </defs>
    <g id="Artboard" stroke="none" stroke-width="1" fill="none" fill-rule="evenodd">
        <g id="Curve" transform="translate(0.000000, 103.000000)">
            <path d="M0,282 C28.5531255,282 74.2593132,260.256365 137.118563,216.769095 C244.303193,142.616652 356.808506,0 512,0 L516.642976,0.0425739148 C669.441068,2.84548662 780.768653,143.358177 886.881437,216.769095 C949.740687,260.256365 995.446875,282 1024,282 L1024,282 L0,282 Z" id="Combined-Shape" fill="#FCFCFC"></path>
            <line x1="626.5" y1="25.5" x2="626.25" y2="282" id="Line-Copy" stroke="url(#linearGradient-1)" stroke-width="3" stroke-linecap="square"></line>
            <line x1="398.5" y1="25.5" x2="397.5" y2="282.5" id="Line" stroke="url(#linearGradient-1)" stroke-width="3" stroke-linecap="square"></line>
            <path d="M0,277 C28.5531255,277 74.2593132,255.64189 137.118563,212.925671 C244.303193,140.087988 356.808506,0 512,0 C667.191494,0 779.699695,140.088969 886.885769,212.928615 C949.741284,255.642872 995.446028,277 1024,277" id="Path-Copy" stroke="#7E7E7E" stroke-width="10" stroke-linecap="round"></path>
        </g>
        <g id="Start-Here" transform="translate(633.500000, 112.000000) rotate(23.000000) translate(-633.500000, -112.000000) translate(544.000000, 73.000000)">
            <circle id="Oval" stroke="#FFFFFF" stroke-width="5" fill="#6CCC00" cx="89.5" cy="56.5" r="19"></circle>
            <rect id="Rectangle" fill="#6CCC00" x="73" y="36" width="33" height="21"></rect>
            <circle id="Oval-Copy" fill="#88FF00" cx="89.5" cy="56.5" r="10.5"></circle>
            <g id="Group">
                <rect id="Rectangle" fill="#6CCC00" x="0" y="0" width="179" height="42" rx="6"></rect>
                <path d="M24.96,32.32 C26,32.32 26.99,32.18 27.93,31.9 C28.87,31.62 29.695,31.2 30.405,30.64 C31.115,30.08 31.68,29.375 32.1,28.525 C32.52,27.675 32.73,26.68 32.73,25.54 C32.73,24.28 32.48,23.27 31.98,22.51 C31.48,21.75 30.86,21.14 30.12,20.68 C29.38,20.22 28.57,19.86 27.69,19.6 C26.81,19.34 26,19.07 25.26,18.79 C24.52,18.51 23.9,18.18 23.4,17.8 C22.9,17.42 22.65,16.87 22.65,16.15 C22.65,15.67 22.75,15.255 22.95,14.905 C23.15,14.555 23.415,14.27 23.745,14.05 C24.075,13.83 24.445,13.67 24.855,13.57 C25.265,13.47 25.69,13.42 26.13,13.42 C26.87,13.42 27.575,13.555 28.245,13.825 C28.915,14.095 29.45,14.52 29.85,15.1 L29.85,15.1 L32.61,12.19 C31.77,11.41 30.825,10.85 29.775,10.51 C28.725,10.17 27.64,10 26.52,10 C25.54,10 24.58,10.13 23.64,10.39 C22.7,10.65 21.865,11.045 21.135,11.575 C20.405,12.105 19.815,12.77 19.365,13.57 C18.915,14.37 18.69,15.32 18.69,16.42 C18.69,17.68 18.94,18.685 19.44,19.435 C19.94,20.185 20.56,20.785 21.3,21.235 C22.04,21.685 22.85,22.04 23.73,22.3 C24.61,22.56 25.42,22.835 26.16,23.125 C26.9,23.415 27.52,23.77 28.02,24.19 C28.52,24.61 28.77,25.21 28.77,25.99 C28.77,26.47 28.66,26.895 28.44,27.265 C28.22,27.635 27.93,27.94 27.57,28.18 C27.21,28.42 26.81,28.6 26.37,28.72 C25.93,28.84 25.49,28.9 25.05,28.9 C24.21,28.9 23.415,28.705 22.665,28.315 C21.915,27.925 21.31,27.38 20.85,26.68 L20.85,26.68 L18,29.44 C18.88,30.48 19.93,31.22 21.15,31.66 C22.37,32.1 23.64,32.32 24.96,32.32 Z M42.33,32.14 C42.75,32.14 43.235,32.105 43.785,32.035 C44.335,31.965 44.8,31.84 45.18,31.66 L45.18,31.66 L45.18,28.63 C44.96,28.79 44.66,28.905 44.28,28.975 C43.9,29.045 43.55,29.08 43.23,29.08 C42.43,29.08 41.895,28.87 41.625,28.45 C41.355,28.03 41.22,27.46 41.22,26.74 L41.22,26.74 L41.22,20.44 L45.18,20.44 L45.18,17.38 L41.22,17.38 L41.22,13.21 L37.62,13.21 L37.62,17.38 L34.65,17.38 L34.65,20.44 L37.62,20.44 L37.62,27.04 C37.62,27.88 37.685,28.62 37.815,29.26 C37.945,29.9 38.185,30.435 38.535,30.865 C38.885,31.295 39.365,31.615 39.975,31.825 C40.585,32.035 41.37,32.14 42.33,32.14 Z M52.29,32.14 C53.25,32.14 54.13,31.955 54.93,31.585 C55.73,31.215 56.39,30.62 56.91,29.8 L56.91,29.8 L57,29.8 L57,31.78 L60.24,31.78 L60.24,23.5 C60.24,23.16 60.23,22.765 60.21,22.315 C60.19,21.865 60.125,21.4 60.015,20.92 C59.905,20.44 59.725,19.965 59.475,19.495 C59.225,19.025 58.87,18.61 58.41,18.25 C57.95,17.89 57.37,17.595 56.67,17.365 C55.97,17.135 55.11,17.02 54.09,17.02 C52.95,17.02 51.845,17.2 50.775,17.56 C49.705,17.92 48.77,18.51 47.97,19.33 L47.97,19.33 L49.86,21.22 C50.34,20.76 50.91,20.395 51.57,20.125 C52.23,19.855 52.94,19.72 53.7,19.72 C54.66,19.72 55.45,19.945 56.07,20.395 C56.69,20.845 57,21.52 57,22.42 L57,22.42 L57,22.81 L56.1,22.81 C55.5,22.81 54.86,22.825 54.18,22.855 C53.5,22.885 52.825,22.955 52.155,23.065 C51.485,23.175 50.84,23.34 50.22,23.56 C49.6,23.78 49.055,24.075 48.585,24.445 C48.115,24.815 47.74,25.275 47.46,25.825 C47.18,26.375 47.04,27.04 47.04,27.82 C47.04,28.54 47.19,29.17 47.49,29.71 C47.79,30.25 48.185,30.7 48.675,31.06 C49.165,31.42 49.725,31.69 50.355,31.87 C50.985,32.05 51.63,32.14 52.29,32.14 Z M53.16,29.44 C52.86,29.44 52.56,29.405 52.26,29.335 C51.96,29.265 51.69,29.15 51.45,28.99 C51.21,28.83 51.015,28.635 50.865,28.405 C50.715,28.175 50.64,27.89 50.64,27.55 C50.64,27.03 50.83,26.625 51.21,26.335 C51.59,26.045 52.055,25.825 52.605,25.675 C53.155,25.525 53.74,25.43 54.36,25.39 C54.98,25.35 55.54,25.33 56.04,25.33 L56.04,25.33 L56.79,25.33 L56.79,26.14 C56.79,27.16 56.495,27.965 55.905,28.555 C55.315,29.145 54.4,29.44 53.16,29.44 Z M67.71,31.78 L67.71,24.07 C67.71,23.87 67.755,23.57 67.845,23.17 C67.935,22.77 68.115,22.37 68.385,21.97 C68.655,21.57 69.045,21.215 69.555,20.905 C70.065,20.595 70.74,20.44 71.58,20.44 C71.86,20.44 72.145,20.465 72.435,20.515 C72.725,20.565 73.02,20.63 73.32,20.71 L73.32,20.71 L73.32,17.23 C73.1,17.17 72.885,17.12 72.675,17.08 C72.465,17.04 72.25,17.02 72.03,17.02 C71.07,17.02 70.22,17.25 69.48,17.71 C68.74,18.17 68.17,18.82 67.77,19.66 L67.77,19.66 L67.71,19.66 L67.71,17.38 L64.11,17.38 L64.11,31.78 L67.71,31.78 Z M81.78,32.14 C82.2,32.14 82.685,32.105 83.235,32.035 C83.785,31.965 84.25,31.84 84.63,31.66 L84.63,31.66 L84.63,28.63 C84.41,28.79 84.11,28.905 83.73,28.975 C83.35,29.045 83,29.08 82.68,29.08 C81.88,29.08 81.345,28.87 81.075,28.45 C80.805,28.03 80.67,27.46 80.67,26.74 L80.67,26.74 L80.67,20.44 L84.63,20.44 L84.63,17.38 L80.67,17.38 L80.67,13.21 L77.07,13.21 L77.07,17.38 L74.1,17.38 L74.1,20.44 L77.07,20.44 L77.07,27.04 C77.07,27.88 77.135,28.62 77.265,29.26 C77.395,29.9 77.635,30.435 77.985,30.865 C78.335,31.295 78.815,31.615 79.425,31.825 C80.035,32.035 80.82,32.14 81.78,32.14 Z M100.44,31.78 L100.44,22.42 L110.37,22.42 L110.37,31.78 L114.15,31.78 L114.15,10.54 L110.37,10.54 L110.37,19 L100.44,19 L100.44,10.54 L96.66,10.54 L96.66,31.78 L100.44,31.78 Z M125.67,32.14 C126.81,32.14 127.9,31.92 128.94,31.48 C129.98,31.04 130.92,30.3 131.76,29.26 L131.76,29.26 L129.18,27.31 C128.72,27.87 128.185,28.335 127.575,28.705 C126.965,29.075 126.21,29.26 125.31,29.26 C124.29,29.26 123.42,28.96 122.7,28.36 C121.98,27.76 121.56,26.92 121.44,25.84 L121.44,25.84 L132.42,25.84 L132.42,24.85 C132.42,23.59 132.255,22.475 131.925,21.505 C131.595,20.535 131.135,19.72 130.545,19.06 C129.955,18.4 129.245,17.895 128.415,17.545 C127.585,17.195 126.67,17.02 125.67,17.02 C124.59,17.02 123.57,17.2 122.61,17.56 C121.65,17.92 120.82,18.43 120.12,19.09 C119.42,19.75 118.865,20.545 118.455,21.475 C118.045,22.405 117.84,23.44 117.84,24.58 C117.84,25.72 118.045,26.755 118.455,27.685 C118.865,28.615 119.42,29.41 120.12,30.07 C120.82,30.73 121.65,31.24 122.61,31.6 C123.57,31.96 124.59,32.14 125.67,32.14 Z M128.82,23.14 L121.44,23.14 C121.58,22.1 121.965,21.27 122.595,20.65 C123.225,20.03 124.08,19.72 125.16,19.72 C126.3,19.72 127.19,20.025 127.83,20.635 C128.47,21.245 128.8,22.08 128.82,23.14 L128.82,23.14 Z M139.38,31.78 L139.38,24.07 C139.38,23.87 139.425,23.57 139.515,23.17 C139.605,22.77 139.785,22.37 140.055,21.97 C140.325,21.57 140.715,21.215 141.225,20.905 C141.735,20.595 142.41,20.44 143.25,20.44 C143.53,20.44 143.815,20.465 144.105,20.515 C144.395,20.565 144.69,20.63 144.99,20.71 L144.99,20.71 L144.99,17.23 C144.77,17.17 144.555,17.12 144.345,17.08 C144.135,17.04 143.92,17.02 143.7,17.02 C142.74,17.02 141.89,17.25 141.15,17.71 C140.41,18.17 139.84,18.82 139.44,19.66 L139.44,19.66 L139.38,19.66 L139.38,17.38 L135.78,17.38 L135.78,31.78 L139.38,31.78 Z M154.02,32.14 C155.16,32.14 156.25,31.92 157.29,31.48 C158.33,31.04 159.27,30.3 160.11,29.26 L160.11,29.26 L157.53,27.31 C157.07,27.87 156.535,28.335 155.925,28.705 C155.315,29.075 154.56,29.26 153.66,29.26 C152.64,29.26 151.77,28.96 151.05,28.36 C150.33,27.76 149.91,26.92 149.79,25.84 L149.79,25.84 L160.77,25.84 L160.77,24.85 C160.77,23.59 160.605,22.475 160.275,21.505 C159.945,20.535 159.485,19.72 158.895,19.06 C158.305,18.4 157.595,17.895 156.765,17.545 C155.935,17.195 155.02,17.02 154.02,17.02 C152.94,17.02 151.92,17.2 150.96,17.56 C150,17.92 149.17,18.43 148.47,19.09 C147.77,19.75 147.215,20.545 146.805,21.475 C146.395,22.405 146.19,23.44 146.19,24.58 C146.19,25.72 146.395,26.755 146.805,27.685 C147.215,28.615 147.77,29.41 148.47,30.07 C149.17,30.73 150,31.24 150.96,31.6 C151.92,31.96 152.94,32.14 154.02,32.14 Z M157.17,23.14 L149.79,23.14 C149.93,22.1 150.315,21.27 150.945,20.65 C151.575,20.03 152.43,19.72 153.51,19.72 C154.65,19.72 155.54,20.025 156.18,20.635 C156.82,21.245 157.15,22.08 157.17,23.14 L157.17,23.14 Z" id="StartHere" fill="#FFFFFF" fill-rule="nonzero"></path>
            </g>
        </g>
        <g id="Software" transform="translate(226.000000, 261.000000)" fill="#000000" font-family="Avenir-Heavy, Avenir" font-size="24" font-weight="600">
            <text>
                <tspan x="25" y="39">Software</tspan>
            </text>
        </g>
        <g id="expertise" transform="translate(431.000000, 243.000000)">
            <rect id="Rectangle" fill="#FFFFFF" opacity="0.504813058" filter="url(#filter-2)" x="0" y="0" width="162" height="64"></rect>
            <text id="Expertise" font-family="Avenir-Heavy, Avenir" font-size="24" font-weight="600" fill="#000000">
                <tspan x="25" y="39">Expertise</tspan>
            </text>
        </g>
        <g id="manpower" transform="translate(643.000000, 261.000000)" fill="#000000" font-family="Avenir-Heavy, Avenir" font-size="24" font-weight="600">
            <text id="Manpower">
                <tspan x="25" y="39">Manpower</tspan>
            </text>
        </g>
    </g>
</svg>