<svg xmlns="http://www.w3.org/2000/svg" width="30.957" height="32" viewBox="0 0 30.957 32">
  <path id="quora-q" d="M38.243,57.336H36.15a2.314,2.314,0,0,1-2.357,2.2c-1.464,0-2.521-1.014-3.536-2.557A13.612,13.612,0,0,0,35.593,46.05a14.147,14.147,0,0,0-28.293,0c0,9.579,9.379,15.829,17.786,13.5,1.407,2.4,3.264,4.45,6.8,4.45C37.729,64,38.371,58.621,38.243,57.336Zm-10.25-4.107C26.6,51.143,24.871,49.5,21.457,49.5a7.489,7.489,0,0,0-4.929,1.629l.871,1.736a3.216,3.216,0,0,1,1.414-.286c2.536,0,3.836,2.2,4.943,4.379a8.044,8.044,0,0,1-2.336.3c-5.357,0-7.679-3.786-7.679-11.193,0-7.457,2.321-11.279,7.679-11.279,5.443,0,7.764,3.821,7.764,11.264A17.614,17.614,0,0,1,27.993,53.229Z" transform="translate(-7.3 -32)" />
</svg>
