<svg xmlns="http://www.w3.org/2000/svg" width="99.232" height="111.924" viewBox="0 0 99.232 111.924">
  <path id="node-js-icon" d="M50.294,115.974a8.7,8.7,0,0,1-4.309-1.155l-13.7-8.106c-2.043-1.155-1.044-1.555-.378-1.777a26.994,26.994,0,0,0,6.2-2.821,1,1,0,0,1,1.022.089l10.527,6.241a1.286,1.286,0,0,0,1.266,0L91.936,84.77a1.315,1.315,0,0,0,.622-1.11V36.309a1.323,1.323,0,0,0-.644-1.133l-41-23.653a1.286,1.286,0,0,0-1.266,0L8.673,35.2a1.3,1.3,0,0,0-.644,1.133V83.66a1.226,1.226,0,0,0,.644,1.088l11.238,6.485c6.108,3.043,9.839-.533,9.839-4.153V40.351a1.176,1.176,0,0,1,1.2-1.177h5.2a1.19,1.19,0,0,1,1.2,1.177V87.1c0,8.129-4.442,12.793-12.149,12.793-2.376,0-4.242,0-9.439-2.576l-10.749-6.2A8.636,8.636,0,0,1,.7,83.637V36.309a8.663,8.663,0,0,1,4.309-7.485L45.985,5.149a8.993,8.993,0,0,1,8.617,0l41.021,23.7a8.636,8.636,0,0,1,4.309,7.485V83.66a8.69,8.69,0,0,1-4.309,7.485L54.6,114.819A8.638,8.638,0,0,1,50.294,115.974ZM83.408,69.312c0-8.862-6-11.216-18.589-12.881C52.07,54.743,50.782,53.877,50.782,50.9c0-2.465,1.088-5.752,10.527-5.752,8.417,0,11.527,1.821,12.815,7.507a1.189,1.189,0,0,0,1.155.933h5.33a1.159,1.159,0,0,0,.866-.378,1.236,1.236,0,0,0,.311-.911c-.822-9.794-7.329-14.347-20.477-14.347-11.7,0-18.678,4.93-18.678,13.215,0,8.973,6.952,11.46,18.167,12.571,13.437,1.31,14.481,3.287,14.481,5.93,0,4.575-3.687,6.53-12.326,6.53-10.86,0-13.237-2.732-14.036-8.129a1.176,1.176,0,0,0-1.177-1H42.431a1.171,1.171,0,0,0-1.177,1.177c0,6.907,3.753,15.147,21.721,15.147,12.97-.022,20.433-5.153,20.433-14.081Z" transform="translate(-0.7 -4.05)" fill="#006cff"/>
</svg>
