<svg role="img" version="1.1" xmlns="http://www.w3.org/2000/svg" xmlns:xlink="http://www.w3.org/1999/xlink" x="0px" y="0px" viewBox="0 0 260.7 125.4" style="enable-background:new 0 0 260.7 125.4;" xml:space="preserve" fill="#00285E">
	<title>ATF, Inc.</title>
	<g>
		<path d="M258.1,52.2c-5.4-13.2-17.9-22.5-30-29.1c-16.6-9-35-14.8-53.5-18.3C131.4-3.6,82.7-1.6,41.9,16
			C26.6,22.7,9.6,32.8,2.6,48.8c-8.9,20.4,6.2,38.4,22.4,49.1c1.3,0.9,3.2,1.6,4.8,1.9c0.4,0.1,2.6,0.8,1.4,0
			C16.6,90.1,2.8,74.3,8.2,55.5c3.7-12.9,14.9-22.5,26-29.3C69.1,4.9,114.7,0.7,154.6,3.9c21.5,1.7,43.7,5.8,63.2,15.3
			c12.9,6.3,26.3,15.4,32.5,28.8c12.8,27.5-16.4,48.9-38.3,58.5c-21.2,9.3-44.6,13.8-67.6,15.3c-27,1.8-54.6-0.3-80.7-7.6
			c-1.4-0.4-1-0.1-0.2,0.5c1.2,1,3.5,1.4,5,1.8c44.5,12.4,95.1,12.2,138.9-2.9C231.5,105.3,271,83.9,258.1,52.2z" />
		<path d="M89.8,87.2l2.8,13h23.8l-12.7-59h25.9l-9.2,59h22.5l9.2-59h20.1l-9.2,59h22.5l4.7-30h21.3l3.1-19h-21.3l1.5-10
			h23.5l3.1-19h-37.9h-8.1H99.4H94H76.1l-42.3,78h24.1l7.2-13H89.8z M86.3,69.2h-12l8.9-17.9L86.3,69.2z" />
	</g>
</svg>
