<?xml version="1.0" encoding="utf-8"?>
<!-- Generator: Adobe Illustrator 19.2.1, SVG Export Plug-In . SVG Version: 6.00 Build 0)  -->
<svg version="1.1" id="layer" xmlns="http://www.w3.org/2000/svg" xmlns:xlink="http://www.w3.org/1999/xlink" x="0px" y="0px"
	 viewBox="0 0 652 652" style="enable-background:new 0 0 652 652;" xml:space="preserve">
<style type="text/css">
	.st0{fill:#1E2B49;}
</style>
<g>
	<polygon class="st0" points="589.9,324.9 589.9,331.2 614,331.2 614,355.3 620.3,355.3 620.3,324.9 	"/>
	<path class="st0" d="M292,235h-26.2c-0.4,0-0.7,0.3-0.7,0.7v103.1c0,23-18.6,41.5-41.5,41.5c-3.4,0-6.7-0.1-9.9-0.7
		c-0.1,0-0.1,0-0.2,0c-0.4-0.1-0.9-0.2-1.4-0.3H212c-0.5-0.1-1-0.3-1.5-0.4l0,0c-2.4-0.7-5.1-1.8-7.8-3.1l0,0c0,0-0.1,0-0.3-0.1
		c-0.8-0.4-3.2-1.7-6.4-3.9c-1.6-1.2-3.1-2.5-4.8-4.1c-0.5-0.5-1.4-0.2-1.6,0.4l-6.8,26.4c-0.2,0.6,0.1,1.4,0.6,1.9
		c1.7,1.3,3.2,2.4,4.7,3l0,0c6.1,3.5,18.2,8.9,34.4,8.9c0.3,0,0.6,0,0.9,0c15.6,0,30-5.1,41.5-13.8v13.1c0,0.4,0.3,0.7,0.7,0.7H292
		c0.4,0,0.7-0.3,0.7-0.7V235.8C292.7,235.3,292.4,235,292,235z"/>
	<path class="st0" d="M124.7,278.5L124.7,278.5c-6-3.5-18.1-8.9-34.3-8.9c-0.3,0-0.6,0-0.9,0c-15.6,0-30,5.1-41.5,13.8v-13
		c0-0.4-0.3-0.7-0.7-0.7H21.1c-0.5-0.1-0.8,0.3-0.8,0.7v137c0,0.4,0.3,0.7,0.7,0.7h26.2c0.4,0,0.7-0.3,0.7-0.7v-68.5
		c0-23,18.6-41.5,41.5-41.5c3.4,0,6.7,0.1,9.9,0.7c0.1,0,0.1,0,0.2,0c0.4,0.1,0.9,0.2,1.4,0.3h0.1c0.5,0.1,1,0.3,1.5,0.4l0,0
		c2.4,0.7,5.1,1.8,7.8,3.1l0,0c0,0,0.1,0,0.3,0.1c0.8,0.4,3.2,1.7,6.4,3.9c1.6,1.2,3.1,2.5,4.8,4.1c0.5,0.5,1.4,0.2,1.6-0.4
		l6.8-26.4c0.2-0.6-0.1-1.4-0.6-1.9C127.9,280.3,126.2,279.3,124.7,278.5z"/>
	<path class="st0" d="M213.1,297.4c3.4,0,6.7,0.1,9.9,0.7c0.1,0,0.1,0,0.2,0c0.4,0.1,0.9,0.2,1.4,0.3h0.1c0.5,0.1,1,0.3,1.5,0.4l0,0
		c2.4,0.7,5.1,1.8,7.8,3.1l0,0c0,0,0.1,0,0.3,0.1c0.8,0.4,3.2,1.7,6.4,3.9c1.6,1.2,3.1,2.5,4.8,4.1c0.5,0.5,1.4,0.2,1.6-0.4
		l6.8-26.4c0.2-0.6-0.1-1.4-0.6-1.9c-1.7-1.3-3.2-2.4-4.7-3l0,0c-6-3.2-18.1-8.7-34.3-8.7c-0.3,0-0.6,0-0.9,0
		c-15.6,0-30,5.1-41.5,13.8v-13c0-0.4-0.3-0.7-0.7-0.7h-26.2c-0.4,0-0.7,0.3-0.7,0.7v137c0,0.4,0.3,0.7,0.7,0.7H171
		c0.4,0,0.7-0.3,0.7-0.7v-68.5C171.6,315.9,190.2,297.4,213.1,297.4z"/>
	<path class="st0" d="M331,372c-3.9,0-6.9-3-6.9-6.8c0-3.8,3-6.8,6.9-6.8c2,0,4,0.9,5.4,2.5l1.9-2.4c-1.9-1.9-4.6-3-7.3-3
		c-5.8,0-10.2,4.2-10.2,9.7c0,5.6,4.4,9.9,10.1,9.9c2.7,0,5.6-1.3,7.5-3.1l-2-2.2C334.9,371.1,332.9,372,331,372z"/>
	<path class="st0" d="M350.2,355.4c-5.8,0-10.3,4.2-10.3,9.7c0,5.6,4.5,9.9,10.3,9.9s10.3-4.3,10.3-9.9
		C360.4,359.6,355.9,355.4,350.2,355.4z M350.2,372.1c-3.8,0-7-3-7-6.9c0-3.9,3.1-6.8,7-6.8c3.8,0,6.9,3,6.9,6.8
		S353.9,372.1,350.2,372.1z"/>
	<polygon class="st0" points="384.8,355.4 380.9,355.4 374.5,368.3 368.1,355.4 364.2,355.4 364.2,374.9 367.3,374.9 367.3,360.4 
		373.4,372.8 375.5,372.8 381.7,360.4 381.7,374.9 384.8,374.9 	"/>
	<polygon class="st0" points="407.6,374.9 410.6,374.9 410.6,355.4 406.8,355.4 400.4,368.3 394,355.4 390.1,355.4 390.1,374.9 
		393.1,374.9 393.1,360.4 399.3,372.8 401.4,372.8 407.6,360.4 	"/>
	<path class="st0" d="M432.5,366.9v-11.3h-3.2v11.3c0,3.2-2,5.2-5.1,5.2s-5.2-2-5.2-5.2v-11.3h-3.2v11.3c0,5,3.2,8.2,8.5,8.2
		S432.5,371.9,432.5,366.9z"/>
	<polygon class="st0" points="440.7,361 451.1,374.9 454.2,374.9 454.2,355.4 451.1,355.4 451.1,369.5 440.7,355.4 437.5,355.4 
		437.5,374.9 440.7,374.9 	"/>
	<rect x="459.7" y="355.4" class="st0" width="3.2" height="19.4"/>
	<path class="st0" d="M477,372c-3.9,0-6.9-3-6.9-6.8c0-3.8,3-6.8,6.9-6.8c2,0,4,0.9,5.4,2.5l1.9-2.4c-1.9-1.9-4.6-3-7.3-3
		c-5.8,0-10.2,4.2-10.2,9.7c0,5.6,4.4,9.9,10.1,9.9c2.7,0,5.6-1.3,7.5-3.1l-2-2.2C480.9,371.1,478.9,372,477,372z"/>
	<path class="st0" d="M493.9,355.4l-8.6,19.4h3.5l1.9-4.4h9.7l1.9,4.4h3.5l-8.5-19.4C497.2,355.4,493.9,355.4,493.9,355.4z
		 M491.8,367.6l3.7-8.6l3.7,8.6H491.8z"/>
	<polygon class="st0" points="504.3,358.5 510.4,358.5 510.4,374.9 513.7,374.9 513.7,358.5 519.8,358.5 519.8,355.4 504.3,355.4 	
		"/>
	<rect x="522.9" y="355.4" class="st0" width="3.2" height="19.4"/>
	<path class="st0" d="M540.2,355.4c-5.8,0-10.3,4.2-10.3,9.7c0,5.6,4.5,9.9,10.3,9.9c5.8,0,10.3-4.3,10.3-9.9
		C550.6,359.6,546,355.4,540.2,355.4z M540.3,372.1c-3.8,0-7-3-7-6.9c0-3.9,3.1-6.8,7-6.8c3.8,0,6.9,3,6.9,6.8
		S544.1,372.1,540.3,372.1z"/>
	<polygon class="st0" points="567.8,369.5 557.5,355.4 554.2,355.4 554.2,374.9 557.6,374.9 557.6,361 567.8,374.9 571.1,374.9 
		571.1,355.4 567.8,355.4 	"/>
	<path class="st0" d="M579.5,360.5c0-1.3,1.3-2,3.1-2c1.5,0,3.6,0.5,5.7,1.8l1.4-2.9c-1.8-1.2-4.3-2-6.8-2c-4.2,0-7,2.1-7,5.4
		c0,6.9,10.5,4.5,10.5,8.8c0,1.5-1.4,2.3-3.7,2.3c-2.1,0-4.6-1-6.6-2.8l-1.4,2.8c2,1.8,4.9,3,8,3c4.3,0,7.3-2.1,7.3-5.6
		C590,362.5,579.5,364.7,579.5,360.5z"/>
	<polygon class="st0" points="325.5,399.9 335.1,399.9 335.1,396.9 325.5,396.9 325.5,391.7 336.1,391.7 336.1,388.8 322.3,388.8 
		322.3,408.2 336.5,408.2 336.5,405.2 325.5,405.2 	"/>
	<polygon class="st0" points="354.4,402.7 344,388.8 340.7,388.8 340.7,408.2 344.1,408.2 344.1,394.2 354.4,408.2 357.6,408.2 
		357.6,388.8 354.4,388.8 	"/>
	<path class="st0" d="M369,388.8l-8.6,19.4h3.5l1.9-4.4h9.7l1.9,4.4h3.5l-8.5-19.4H369z M366.9,400.8l3.7-8.6l3.7,8.6H366.9z"/>
	<path class="st0" d="M395.2,397.9c2.1-0.5,3.5-2.1,3.5-4.3c0-3-2.5-4.8-6.5-4.8h-8.4v19.4h8.6c4.4,0,7-2,7-5.3
		C399.4,400.2,397.9,398.3,395.2,397.9z M387,391.6h5c2.1,0,3.4,0.8,3.4,2.5s-1.3,2.6-3.4,2.6h-5V391.6z M392,405.2h-5v-5.6h5
		c2.5,0,4.1,1,4.1,2.7C396.1,404.3,394.5,405.2,392,405.2z"/>
	<polygon class="st0" points="406.9,388.8 403.5,388.8 403.5,408.2 415.3,408.2 415.3,405.2 406.9,405.2 	"/>
	<polygon class="st0" points="421.9,399.9 431.4,399.9 431.4,396.9 421.9,396.9 421.9,391.7 432.4,391.7 432.4,388.8 418.6,388.8 
		418.6,408.2 432.9,408.2 432.9,405.2 421.9,405.2 	"/>
	<path class="st0" d="M445,388.8h-8v19.4h7.9c5.9,0,10.2-4.1,10.2-9.7C455.1,392.9,450.9,388.8,445,388.8z M445.1,405.2h-4.7v-13.5
		h4.6c3.8,0,6.8,2.8,6.8,6.8C451.7,402.4,448.9,405.2,445.1,405.2z"/>
</g>
</svg>
