<?xml version="1.0" encoding="UTF-8"?>
<svg width="1024px" height="338px" viewBox="0 0 1024 338" version="1.1" xmlns="http://www.w3.org/2000/svg" xmlns:xlink="http://www.w3.org/1999/xlink">
    <!-- Generator: Sketch 63.1 (92452) - https://sketch.com -->
    <title>Artboard</title>
    <desc>Created with Sketch.</desc>
    <defs>
        <linearGradient x1="50%" y1="78.8983319%" x2="50%" y2="0%" id="linearGradient-1">
            <stop stop-color="#FCFCFC" stop-opacity="0" offset="0%"></stop>
            <stop stop-color="#6CCC00" stop-opacity="0.515269886" offset="100%"></stop>
        </linearGradient>
        <linearGradient x1="50%" y1="78.8983319%" x2="50%" y2="0%" id="linearGradient-2">
            <stop stop-color="#FCFCFC" stop-opacity="0" offset="0%"></stop>
            <stop stop-color="#00BDCC" stop-opacity="0.542422421" offset="100%"></stop>
        </linearGradient>
        <filter x="-35.2%" y="-89.1%" width="170.4%" height="278.1%" filterUnits="objectBoundingBox" id="filter-3">
            <feGaussianBlur stdDeviation="19" in="SourceGraphic"></feGaussianBlur>
        </filter>
        <filter x="-35.2%" y="-89.1%" width="170.4%" height="278.1%" filterUnits="objectBoundingBox" id="filter-4">
            <feGaussianBlur stdDeviation="19" in="SourceGraphic"></feGaussianBlur>
        </filter>
    </defs>
    <g id="Artboard" stroke="none" stroke-width="1" fill="none" fill-rule="evenodd">
        <g id="Curve" transform="translate(0.000000, 56.000000)">
            <path d="M0,282 C28.5531255,282 74.2593132,260.256365 137.118563,216.769095 C244.303193,142.616652 356.808506,0 512,0 L516.642976,0.0425739148 C669.441068,2.84548662 780.768653,143.358177 886.881437,216.769095 C949.740687,260.256365 995.446875,282 1024,282 L1024,282 L0,282 Z" id="Combined-Shape" fill="#FCFCFC"></path>
            <path d="M512,-4.26325641e-14 L516.642976,0.0425739148 C669.441068,2.84548662 780.768653,143.358177 886.881437,216.769095 C892.548262,220.689516 898.07568,224.433222 903.463692,228.000214 L512,228 L512,-4.26325641e-14 L512,-4.26325641e-14 Z" id="Combined-Shape" fill="url(#linearGradient-1)"></path>
            <path d="M120,-4.26325641e-14 L124.642976,0.0425739148 C277.441068,2.84548662 388.768653,143.358177 494.881437,216.769095 C500.548262,220.689516 506.07568,224.433222 511.463692,228.000214 L120,228 L120,-4.26325641e-14 L120,-4.26325641e-14 Z" id="Combined-Shape-Copy-4" fill="url(#linearGradient-2)" transform="translate(315.731846, 114.000107) scale(-1, 1) translate(-315.731846, -114.000107) "></path>
            <path d="M0,277 C28.5531255,277 74.2593132,255.64189 137.118563,212.925671 C244.303193,140.087988 356.808506,0 512,0 C667.191494,0 779.699695,140.088969 886.885769,212.928615 C949.741284,255.642872 995.446028,277 1024,277" id="Path-Copy" stroke="#7E7E7E" stroke-width="10" stroke-linecap="round"></path>
        </g>
        <g id="Start-Here" transform="translate(422.000000, 0.000000)">
            <circle id="Oval" stroke="#FFFFFF" stroke-width="5" fill="#6CCC00" cx="89.5" cy="56.5" r="19"></circle>
            <rect id="Rectangle" fill="#6CCC00" x="73" y="36" width="33" height="21"></rect>
            <circle id="Oval-Copy" fill="#88FF00" cx="89.5" cy="56.5" r="10.5"></circle>
            <g id="Group">
                <rect id="Rectangle" fill="#6CCC00" x="0" y="0" width="179" height="42" rx="6"></rect>
                <path d="M24.96,32.32 C26,32.32 26.99,32.18 27.93,31.9 C28.87,31.62 29.695,31.2 30.405,30.64 C31.115,30.08 31.68,29.375 32.1,28.525 C32.52,27.675 32.73,26.68 32.73,25.54 C32.73,24.28 32.48,23.27 31.98,22.51 C31.48,21.75 30.86,21.14 30.12,20.68 C29.38,20.22 28.57,19.86 27.69,19.6 C26.81,19.34 26,19.07 25.26,18.79 C24.52,18.51 23.9,18.18 23.4,17.8 C22.9,17.42 22.65,16.87 22.65,16.15 C22.65,15.67 22.75,15.255 22.95,14.905 C23.15,14.555 23.415,14.27 23.745,14.05 C24.075,13.83 24.445,13.67 24.855,13.57 C25.265,13.47 25.69,13.42 26.13,13.42 C26.87,13.42 27.575,13.555 28.245,13.825 C28.915,14.095 29.45,14.52 29.85,15.1 L29.85,15.1 L32.61,12.19 C31.77,11.41 30.825,10.85 29.775,10.51 C28.725,10.17 27.64,10 26.52,10 C25.54,10 24.58,10.13 23.64,10.39 C22.7,10.65 21.865,11.045 21.135,11.575 C20.405,12.105 19.815,12.77 19.365,13.57 C18.915,14.37 18.69,15.32 18.69,16.42 C18.69,17.68 18.94,18.685 19.44,19.435 C19.94,20.185 20.56,20.785 21.3,21.235 C22.04,21.685 22.85,22.04 23.73,22.3 C24.61,22.56 25.42,22.835 26.16,23.125 C26.9,23.415 27.52,23.77 28.02,24.19 C28.52,24.61 28.77,25.21 28.77,25.99 C28.77,26.47 28.66,26.895 28.44,27.265 C28.22,27.635 27.93,27.94 27.57,28.18 C27.21,28.42 26.81,28.6 26.37,28.72 C25.93,28.84 25.49,28.9 25.05,28.9 C24.21,28.9 23.415,28.705 22.665,28.315 C21.915,27.925 21.31,27.38 20.85,26.68 L20.85,26.68 L18,29.44 C18.88,30.48 19.93,31.22 21.15,31.66 C22.37,32.1 23.64,32.32 24.96,32.32 Z M42.33,32.14 C42.75,32.14 43.235,32.105 43.785,32.035 C44.335,31.965 44.8,31.84 45.18,31.66 L45.18,31.66 L45.18,28.63 C44.96,28.79 44.66,28.905 44.28,28.975 C43.9,29.045 43.55,29.08 43.23,29.08 C42.43,29.08 41.895,28.87 41.625,28.45 C41.355,28.03 41.22,27.46 41.22,26.74 L41.22,26.74 L41.22,20.44 L45.18,20.44 L45.18,17.38 L41.22,17.38 L41.22,13.21 L37.62,13.21 L37.62,17.38 L34.65,17.38 L34.65,20.44 L37.62,20.44 L37.62,27.04 C37.62,27.88 37.685,28.62 37.815,29.26 C37.945,29.9 38.185,30.435 38.535,30.865 C38.885,31.295 39.365,31.615 39.975,31.825 C40.585,32.035 41.37,32.14 42.33,32.14 Z M52.29,32.14 C53.25,32.14 54.13,31.955 54.93,31.585 C55.73,31.215 56.39,30.62 56.91,29.8 L56.91,29.8 L57,29.8 L57,31.78 L60.24,31.78 L60.24,23.5 C60.24,23.16 60.23,22.765 60.21,22.315 C60.19,21.865 60.125,21.4 60.015,20.92 C59.905,20.44 59.725,19.965 59.475,19.495 C59.225,19.025 58.87,18.61 58.41,18.25 C57.95,17.89 57.37,17.595 56.67,17.365 C55.97,17.135 55.11,17.02 54.09,17.02 C52.95,17.02 51.845,17.2 50.775,17.56 C49.705,17.92 48.77,18.51 47.97,19.33 L47.97,19.33 L49.86,21.22 C50.34,20.76 50.91,20.395 51.57,20.125 C52.23,19.855 52.94,19.72 53.7,19.72 C54.66,19.72 55.45,19.945 56.07,20.395 C56.69,20.845 57,21.52 57,22.42 L57,22.42 L57,22.81 L56.1,22.81 C55.5,22.81 54.86,22.825 54.18,22.855 C53.5,22.885 52.825,22.955 52.155,23.065 C51.485,23.175 50.84,23.34 50.22,23.56 C49.6,23.78 49.055,24.075 48.585,24.445 C48.115,24.815 47.74,25.275 47.46,25.825 C47.18,26.375 47.04,27.04 47.04,27.82 C47.04,28.54 47.19,29.17 47.49,29.71 C47.79,30.25 48.185,30.7 48.675,31.06 C49.165,31.42 49.725,31.69 50.355,31.87 C50.985,32.05 51.63,32.14 52.29,32.14 Z M53.16,29.44 C52.86,29.44 52.56,29.405 52.26,29.335 C51.96,29.265 51.69,29.15 51.45,28.99 C51.21,28.83 51.015,28.635 50.865,28.405 C50.715,28.175 50.64,27.89 50.64,27.55 C50.64,27.03 50.83,26.625 51.21,26.335 C51.59,26.045 52.055,25.825 52.605,25.675 C53.155,25.525 53.74,25.43 54.36,25.39 C54.98,25.35 55.54,25.33 56.04,25.33 L56.04,25.33 L56.79,25.33 L56.79,26.14 C56.79,27.16 56.495,27.965 55.905,28.555 C55.315,29.145 54.4,29.44 53.16,29.44 Z M67.71,31.78 L67.71,24.07 C67.71,23.87 67.755,23.57 67.845,23.17 C67.935,22.77 68.115,22.37 68.385,21.97 C68.655,21.57 69.045,21.215 69.555,20.905 C70.065,20.595 70.74,20.44 71.58,20.44 C71.86,20.44 72.145,20.465 72.435,20.515 C72.725,20.565 73.02,20.63 73.32,20.71 L73.32,20.71 L73.32,17.23 C73.1,17.17 72.885,17.12 72.675,17.08 C72.465,17.04 72.25,17.02 72.03,17.02 C71.07,17.02 70.22,17.25 69.48,17.71 C68.74,18.17 68.17,18.82 67.77,19.66 L67.77,19.66 L67.71,19.66 L67.71,17.38 L64.11,17.38 L64.11,31.78 L67.71,31.78 Z M81.78,32.14 C82.2,32.14 82.685,32.105 83.235,32.035 C83.785,31.965 84.25,31.84 84.63,31.66 L84.63,31.66 L84.63,28.63 C84.41,28.79 84.11,28.905 83.73,28.975 C83.35,29.045 83,29.08 82.68,29.08 C81.88,29.08 81.345,28.87 81.075,28.45 C80.805,28.03 80.67,27.46 80.67,26.74 L80.67,26.74 L80.67,20.44 L84.63,20.44 L84.63,17.38 L80.67,17.38 L80.67,13.21 L77.07,13.21 L77.07,17.38 L74.1,17.38 L74.1,20.44 L77.07,20.44 L77.07,27.04 C77.07,27.88 77.135,28.62 77.265,29.26 C77.395,29.9 77.635,30.435 77.985,30.865 C78.335,31.295 78.815,31.615 79.425,31.825 C80.035,32.035 80.82,32.14 81.78,32.14 Z M100.44,31.78 L100.44,22.42 L110.37,22.42 L110.37,31.78 L114.15,31.78 L114.15,10.54 L110.37,10.54 L110.37,19 L100.44,19 L100.44,10.54 L96.66,10.54 L96.66,31.78 L100.44,31.78 Z M125.67,32.14 C126.81,32.14 127.9,31.92 128.94,31.48 C129.98,31.04 130.92,30.3 131.76,29.26 L131.76,29.26 L129.18,27.31 C128.72,27.87 128.185,28.335 127.575,28.705 C126.965,29.075 126.21,29.26 125.31,29.26 C124.29,29.26 123.42,28.96 122.7,28.36 C121.98,27.76 121.56,26.92 121.44,25.84 L121.44,25.84 L132.42,25.84 L132.42,24.85 C132.42,23.59 132.255,22.475 131.925,21.505 C131.595,20.535 131.135,19.72 130.545,19.06 C129.955,18.4 129.245,17.895 128.415,17.545 C127.585,17.195 126.67,17.02 125.67,17.02 C124.59,17.02 123.57,17.2 122.61,17.56 C121.65,17.92 120.82,18.43 120.12,19.09 C119.42,19.75 118.865,20.545 118.455,21.475 C118.045,22.405 117.84,23.44 117.84,24.58 C117.84,25.72 118.045,26.755 118.455,27.685 C118.865,28.615 119.42,29.41 120.12,30.07 C120.82,30.73 121.65,31.24 122.61,31.6 C123.57,31.96 124.59,32.14 125.67,32.14 Z M128.82,23.14 L121.44,23.14 C121.58,22.1 121.965,21.27 122.595,20.65 C123.225,20.03 124.08,19.72 125.16,19.72 C126.3,19.72 127.19,20.025 127.83,20.635 C128.47,21.245 128.8,22.08 128.82,23.14 L128.82,23.14 Z M139.38,31.78 L139.38,24.07 C139.38,23.87 139.425,23.57 139.515,23.17 C139.605,22.77 139.785,22.37 140.055,21.97 C140.325,21.57 140.715,21.215 141.225,20.905 C141.735,20.595 142.41,20.44 143.25,20.44 C143.53,20.44 143.815,20.465 144.105,20.515 C144.395,20.565 144.69,20.63 144.99,20.71 L144.99,20.71 L144.99,17.23 C144.77,17.17 144.555,17.12 144.345,17.08 C144.135,17.04 143.92,17.02 143.7,17.02 C142.74,17.02 141.89,17.25 141.15,17.71 C140.41,18.17 139.84,18.82 139.44,19.66 L139.44,19.66 L139.38,19.66 L139.38,17.38 L135.78,17.38 L135.78,31.78 L139.38,31.78 Z M154.02,32.14 C155.16,32.14 156.25,31.92 157.29,31.48 C158.33,31.04 159.27,30.3 160.11,29.26 L160.11,29.26 L157.53,27.31 C157.07,27.87 156.535,28.335 155.925,28.705 C155.315,29.075 154.56,29.26 153.66,29.26 C152.64,29.26 151.77,28.96 151.05,28.36 C150.33,27.76 149.91,26.92 149.79,25.84 L149.79,25.84 L160.77,25.84 L160.77,24.85 C160.77,23.59 160.605,22.475 160.275,21.505 C159.945,20.535 159.485,19.72 158.895,19.06 C158.305,18.4 157.595,17.895 156.765,17.545 C155.935,17.195 155.02,17.02 154.02,17.02 C152.94,17.02 151.92,17.2 150.96,17.56 C150,17.92 149.17,18.43 148.47,19.09 C147.77,19.75 147.215,20.545 146.805,21.475 C146.395,22.405 146.19,23.44 146.19,24.58 C146.19,25.72 146.395,26.755 146.805,27.685 C147.215,28.615 147.77,29.41 148.47,30.07 C149.17,30.73 150,31.24 150.96,31.6 C151.92,31.96 152.94,32.14 154.02,32.14 Z M157.17,23.14 L149.79,23.14 C149.93,22.1 150.315,21.27 150.945,20.65 C151.575,20.03 152.43,19.72 153.51,19.72 C154.65,19.72 155.54,20.025 156.18,20.635 C156.82,21.245 157.15,22.08 157.17,23.14 L157.17,23.14 Z" id="StartHere" fill="#FFFFFF" fill-rule="nonzero"></path>
            </g>
        </g>
        <g id="Group-2" transform="translate(292.000000, 202.000000)">
            <rect id="Rectangle" fill="#FFFFFF" filter="url(#filter-3)" x="0" y="7" width="162" height="64"></rect>
            <path d="M39.228,31 L39.228,23.944 L46.716,23.944 L46.716,21.208 L39.228,21.208 L39.228,16.744 L47.172,16.744 L47.172,14.008 L36.204,14.008 L36.204,31 L39.228,31 Z M51.18,17.296 C51.708,17.296 52.152,17.132 52.512,16.804 C52.872,16.476 53.052,16.064 53.052,15.568 C53.052,15.072 52.872,14.66 52.512,14.332 C52.152,14.004 51.708,13.84 51.18,13.84 C50.652,13.84 50.216,14.012 49.872,14.356 C49.528,14.7 49.356,15.104 49.356,15.568 C49.356,16.032 49.528,16.436 49.872,16.78 C50.216,17.124 50.652,17.296 51.18,17.296 Z M52.644,31 L52.644,19.48 L49.764,19.48 L49.764,31 L52.644,31 Z M61.308,36.76 C62.428,36.76 63.396,36.6 64.212,36.28 C65.028,35.96 65.704,35.508 66.24,34.924 C66.776,34.34 67.172,33.628 67.428,32.788 C67.684,31.948 67.812,31.008 67.812,29.968 L67.812,29.968 L67.812,19.48 L65.076,19.48 L65.076,21.208 L65.028,21.208 C64.612,20.504 64.052,19.992 63.348,19.672 C62.644,19.352 61.884,19.192 61.068,19.192 C60.172,19.192 59.376,19.348 58.68,19.66 C57.984,19.972 57.388,20.4 56.892,20.944 C56.396,21.488 56.02,22.128 55.764,22.864 C55.508,23.6 55.38,24.392 55.38,25.24 C55.38,26.056 55.516,26.824 55.788,27.544 C56.06,28.264 56.448,28.888 56.952,29.416 C57.456,29.944 58.06,30.364 58.764,30.676 C59.468,30.988 60.252,31.144 61.116,31.144 C61.836,31.144 62.54,31.004 63.228,30.724 C63.916,30.444 64.468,30.024 64.884,29.464 L64.884,29.464 L64.932,29.464 L64.932,30.304 C64.932,30.88 64.872,31.404 64.752,31.876 C64.632,32.348 64.432,32.752 64.152,33.088 C63.872,33.424 63.496,33.688 63.024,33.88 C62.552,34.072 61.972,34.168 61.284,34.168 C60.468,34.168 59.748,34.024 59.124,33.736 C58.5,33.448 57.9,33.04 57.324,32.512 L57.324,32.512 L55.596,34.864 C56.412,35.584 57.3,36.08 58.26,36.352 C59.22,36.624 60.236,36.76 61.308,36.76 Z M61.644,28.552 C61.164,28.552 60.716,28.464 60.3,28.288 C59.884,28.112 59.524,27.872 59.22,27.568 C58.916,27.264 58.68,26.912 58.512,26.512 C58.344,26.112 58.26,25.68 58.26,25.216 C58.26,24.704 58.344,24.236 58.512,23.812 C58.68,23.388 58.912,23.028 59.208,22.732 C59.504,22.436 59.86,22.204 60.276,22.036 C60.692,21.868 61.156,21.784 61.668,21.784 C62.724,21.784 63.556,22.096 64.164,22.72 C64.772,23.344 65.076,24.16 65.076,25.168 C65.076,25.648 64.996,26.096 64.836,26.512 C64.676,26.928 64.448,27.284 64.152,27.58 C63.856,27.876 63.496,28.112 63.072,28.288 C62.648,28.464 62.172,28.552 61.644,28.552 Z M75.276,31.288 C76.236,31.288 76.996,31.076 77.556,30.652 C78.116,30.228 78.532,29.728 78.804,29.152 L78.804,29.152 L78.852,29.152 L78.852,31 L81.588,31 L81.588,19.48 L78.708,19.48 L78.708,25.768 C78.708,26.152 78.66,26.52 78.564,26.872 C78.468,27.224 78.312,27.536 78.096,27.808 C77.88,28.08 77.608,28.296 77.28,28.456 C76.952,28.616 76.548,28.696 76.068,28.696 C75.556,28.696 75.16,28.58 74.88,28.348 C74.6,28.116 74.392,27.828 74.256,27.484 C74.12,27.14 74.036,26.772 74.004,26.38 C73.972,25.988 73.956,25.632 73.956,25.312 L73.956,25.312 L73.956,19.48 L71.076,19.48 L71.076,26.752 C71.076,27.344 71.148,27.912 71.292,28.456 C71.436,29 71.676,29.484 72.012,29.908 C72.348,30.332 72.784,30.668 73.32,30.916 C73.856,31.164 74.508,31.288 75.276,31.288 Z M87.732,31 L87.732,24.832 C87.732,24.672 87.768,24.432 87.84,24.112 C87.912,23.792 88.056,23.472 88.272,23.152 C88.488,22.832 88.8,22.548 89.208,22.3 C89.616,22.052 90.156,21.928 90.828,21.928 C91.052,21.928 91.28,21.948 91.512,21.988 C91.744,22.028 91.98,22.08 92.22,22.144 L92.22,22.144 L92.22,19.36 C92.044,19.312 91.872,19.272 91.704,19.24 C91.536,19.208 91.364,19.192 91.188,19.192 C90.42,19.192 89.74,19.376 89.148,19.744 C88.556,20.112 88.1,20.632 87.78,21.304 L87.78,21.304 L87.732,21.304 L87.732,19.48 L84.852,19.48 L84.852,31 L87.732,31 Z M95.652,17.296 C96.18,17.296 96.624,17.132 96.984,16.804 C97.344,16.476 97.524,16.064 97.524,15.568 C97.524,15.072 97.344,14.66 96.984,14.332 C96.624,14.004 96.18,13.84 95.652,13.84 C95.124,13.84 94.688,14.012 94.344,14.356 C94,14.7 93.828,15.104 93.828,15.568 C93.828,16.032 94,16.436 94.344,16.78 C94.688,17.124 95.124,17.296 95.652,17.296 Z M97.116,31 L97.116,19.48 L94.236,19.48 L94.236,31 L97.116,31 Z M103.308,31 L103.308,24.712 C103.308,24.328 103.356,23.96 103.452,23.608 C103.548,23.256 103.704,22.944 103.92,22.672 C104.136,22.4 104.408,22.184 104.736,22.024 C105.064,21.864 105.468,21.784 105.948,21.784 C106.444,21.784 106.836,21.9 107.124,22.132 C107.412,22.364 107.624,22.652 107.76,22.996 C107.896,23.34 107.98,23.708 108.012,24.1 C108.044,24.492 108.06,24.848 108.06,25.168 L108.06,25.168 L108.06,31 L110.94,31 L110.94,23.728 C110.94,23.136 110.868,22.568 110.724,22.024 C110.58,21.48 110.34,21 110.004,20.584 C109.668,20.168 109.232,19.832 108.696,19.576 C108.16,19.32 107.508,19.192 106.74,19.192 C105.78,19.192 105.02,19.404 104.46,19.828 C103.9,20.252 103.484,20.752 103.212,21.328 L103.212,21.328 L103.164,21.328 L103.164,19.48 L100.428,19.48 L100.428,31 L103.308,31 Z M119.556,36.76 C120.676,36.76 121.644,36.6 122.46,36.28 C123.276,35.96 123.952,35.508 124.488,34.924 C125.024,34.34 125.42,33.628 125.676,32.788 C125.932,31.948 126.06,31.008 126.06,29.968 L126.06,29.968 L126.06,19.48 L123.324,19.48 L123.324,21.208 L123.276,21.208 C122.86,20.504 122.3,19.992 121.596,19.672 C120.892,19.352 120.132,19.192 119.316,19.192 C118.42,19.192 117.624,19.348 116.928,19.66 C116.232,19.972 115.636,20.4 115.14,20.944 C114.644,21.488 114.268,22.128 114.012,22.864 C113.756,23.6 113.628,24.392 113.628,25.24 C113.628,26.056 113.764,26.824 114.036,27.544 C114.308,28.264 114.696,28.888 115.2,29.416 C115.704,29.944 116.308,30.364 117.012,30.676 C117.716,30.988 118.5,31.144 119.364,31.144 C120.084,31.144 120.788,31.004 121.476,30.724 C122.164,30.444 122.716,30.024 123.132,29.464 L123.132,29.464 L123.18,29.464 L123.18,30.304 C123.18,30.88 123.12,31.404 123,31.876 C122.88,32.348 122.68,32.752 122.4,33.088 C122.12,33.424 121.744,33.688 121.272,33.88 C120.8,34.072 120.22,34.168 119.532,34.168 C118.716,34.168 117.996,34.024 117.372,33.736 C116.748,33.448 116.148,33.04 115.572,32.512 L115.572,32.512 L113.844,34.864 C114.66,35.584 115.548,36.08 116.508,36.352 C117.468,36.624 118.484,36.76 119.556,36.76 Z M119.892,28.552 C119.412,28.552 118.964,28.464 118.548,28.288 C118.132,28.112 117.772,27.872 117.468,27.568 C117.164,27.264 116.928,26.912 116.76,26.512 C116.592,26.112 116.508,25.68 116.508,25.216 C116.508,24.704 116.592,24.236 116.76,23.812 C116.928,23.388 117.16,23.028 117.456,22.732 C117.752,22.436 118.108,22.204 118.524,22.036 C118.94,21.868 119.404,21.784 119.916,21.784 C120.972,21.784 121.804,22.096 122.412,22.72 C123.02,23.344 123.324,24.16 123.324,25.168 C123.324,25.648 123.244,26.096 123.084,26.512 C122.924,26.928 122.696,27.284 122.4,27.58 C122.104,27.876 121.744,28.112 121.32,28.288 C120.896,28.464 120.42,28.552 119.892,28.552 Z M30.54,64.288 C30.876,64.288 31.264,64.26 31.704,64.204 C32.144,64.148 32.516,64.048 32.82,63.904 L32.82,63.904 L32.82,61.48 C32.644,61.608 32.404,61.7 32.1,61.756 C31.796,61.812 31.516,61.84 31.26,61.84 C30.62,61.84 30.192,61.672 29.976,61.336 C29.76,61 29.652,60.544 29.652,59.968 L29.652,59.968 L29.652,54.928 L32.82,54.928 L32.82,52.48 L29.652,52.48 L29.652,49.144 L26.772,49.144 L26.772,52.48 L24.396,52.48 L24.396,54.928 L26.772,54.928 L26.772,60.208 C26.772,60.88 26.824,61.472 26.928,61.984 C27.032,62.496 27.224,62.924 27.504,63.268 C27.784,63.612 28.168,63.868 28.656,64.036 C29.144,64.204 29.772,64.288 30.54,64.288 Z M37.98,64 L37.98,57.712 C37.98,57.328 38.028,56.96 38.124,56.608 C38.22,56.256 38.376,55.944 38.592,55.672 C38.808,55.4 39.08,55.184 39.408,55.024 C39.736,54.864 40.14,54.784 40.62,54.784 C41.116,54.784 41.508,54.9 41.796,55.132 C42.084,55.364 42.296,55.652 42.432,55.996 C42.568,56.34 42.652,56.708 42.684,57.1 C42.716,57.492 42.732,57.848 42.732,58.168 L42.732,58.168 L42.732,64 L45.612,64 L45.612,56.728 C45.612,56.136 45.54,55.568 45.396,55.024 C45.252,54.48 45.012,54 44.676,53.584 C44.34,53.168 43.904,52.832 43.368,52.576 C42.832,52.32 42.18,52.192 41.412,52.192 C40.516,52.192 39.784,52.388 39.216,52.78 C38.648,53.172 38.252,53.608 38.028,54.088 L38.028,54.088 L37.98,54.088 L37.98,45.856 L35.1,45.856 L35.1,64 L37.98,64 Z M50.34,50.296 C50.868,50.296 51.312,50.132 51.672,49.804 C52.032,49.476 52.212,49.064 52.212,48.568 C52.212,48.072 52.032,47.66 51.672,47.332 C51.312,47.004 50.868,46.84 50.34,46.84 C49.812,46.84 49.376,47.012 49.032,47.356 C48.688,47.7 48.516,48.104 48.516,48.568 C48.516,49.032 48.688,49.436 49.032,49.78 C49.376,50.124 49.812,50.296 50.34,50.296 Z M51.804,64 L51.804,52.48 L48.924,52.48 L48.924,64 L51.804,64 Z M57.996,64 L57.996,57.712 C57.996,57.328 58.044,56.96 58.14,56.608 C58.236,56.256 58.392,55.944 58.608,55.672 C58.824,55.4 59.096,55.184 59.424,55.024 C59.752,54.864 60.156,54.784 60.636,54.784 C61.132,54.784 61.524,54.9 61.812,55.132 C62.1,55.364 62.312,55.652 62.448,55.996 C62.584,56.34 62.668,56.708 62.7,57.1 C62.732,57.492 62.748,57.848 62.748,58.168 L62.748,58.168 L62.748,64 L65.628,64 L65.628,56.728 C65.628,56.136 65.556,55.568 65.412,55.024 C65.268,54.48 65.028,54 64.692,53.584 C64.356,53.168 63.92,52.832 63.384,52.576 C62.848,52.32 62.196,52.192 61.428,52.192 C60.468,52.192 59.708,52.404 59.148,52.828 C58.588,53.252 58.172,53.752 57.9,54.328 L57.9,54.328 L57.852,54.328 L57.852,52.48 L55.116,52.48 L55.116,64 L57.996,64 Z M74.244,69.76 C75.364,69.76 76.332,69.6 77.148,69.28 C77.964,68.96 78.64,68.508 79.176,67.924 C79.712,67.34 80.108,66.628 80.364,65.788 C80.62,64.948 80.748,64.008 80.748,62.968 L80.748,62.968 L80.748,52.48 L78.012,52.48 L78.012,54.208 L77.964,54.208 C77.548,53.504 76.988,52.992 76.284,52.672 C75.58,52.352 74.82,52.192 74.004,52.192 C73.108,52.192 72.312,52.348 71.616,52.66 C70.92,52.972 70.324,53.4 69.828,53.944 C69.332,54.488 68.956,55.128 68.7,55.864 C68.444,56.6 68.316,57.392 68.316,58.24 C68.316,59.056 68.452,59.824 68.724,60.544 C68.996,61.264 69.384,61.888 69.888,62.416 C70.392,62.944 70.996,63.364 71.7,63.676 C72.404,63.988 73.188,64.144 74.052,64.144 C74.772,64.144 75.476,64.004 76.164,63.724 C76.852,63.444 77.404,63.024 77.82,62.464 L77.82,62.464 L77.868,62.464 L77.868,63.304 C77.868,63.88 77.808,64.404 77.688,64.876 C77.568,65.348 77.368,65.752 77.088,66.088 C76.808,66.424 76.432,66.688 75.96,66.88 C75.488,67.072 74.908,67.168 74.22,67.168 C73.404,67.168 72.684,67.024 72.06,66.736 C71.436,66.448 70.836,66.04 70.26,65.512 L70.26,65.512 L68.532,67.864 C69.348,68.584 70.236,69.08 71.196,69.352 C72.156,69.624 73.172,69.76 74.244,69.76 Z M74.58,61.552 C74.1,61.552 73.652,61.464 73.236,61.288 C72.82,61.112 72.46,60.872 72.156,60.568 C71.852,60.264 71.616,59.912 71.448,59.512 C71.28,59.112 71.196,58.68 71.196,58.216 C71.196,57.704 71.28,57.236 71.448,56.812 C71.616,56.388 71.848,56.028 72.144,55.732 C72.44,55.436 72.796,55.204 73.212,55.036 C73.628,54.868 74.092,54.784 74.604,54.784 C75.66,54.784 76.492,55.096 77.1,55.72 C77.708,56.344 78.012,57.16 78.012,58.168 C78.012,58.648 77.932,59.096 77.772,59.512 C77.612,59.928 77.384,60.284 77.088,60.58 C76.792,60.876 76.432,61.112 76.008,61.288 C75.584,61.464 75.108,61.552 74.58,61.552 Z M87.468,64.288 C88.06,64.288 88.652,64.224 89.244,64.096 C89.836,63.968 90.368,63.76 90.84,63.472 C91.312,63.184 91.696,62.804 91.992,62.332 C92.288,61.86 92.436,61.28 92.436,60.592 C92.436,59.84 92.284,59.248 91.98,58.816 C91.676,58.384 91.292,58.044 90.828,57.796 C90.364,57.548 89.864,57.364 89.328,57.244 C88.792,57.124 88.292,57.008 87.828,56.896 C87.364,56.784 86.98,56.648 86.676,56.488 C86.372,56.328 86.22,56.072 86.22,55.72 C86.22,55.288 86.404,54.976 86.772,54.784 C87.14,54.592 87.516,54.496 87.9,54.496 C88.844,54.496 89.596,54.888 90.156,55.672 L90.156,55.672 L92.076,53.944 C91.612,53.304 91.004,52.852 90.252,52.588 C89.5,52.324 88.74,52.192 87.972,52.192 C87.396,52.192 86.828,52.264 86.268,52.408 C85.708,52.552 85.212,52.776 84.78,53.08 C84.348,53.384 84,53.772 83.736,54.244 C83.472,54.716 83.34,55.272 83.34,55.912 C83.34,56.648 83.492,57.224 83.796,57.64 C84.1,58.056 84.484,58.38 84.948,58.612 C85.412,58.844 85.912,59.012 86.448,59.116 C86.984,59.22 87.484,59.332 87.948,59.452 C88.412,59.572 88.796,59.728 89.1,59.92 C89.404,60.112 89.556,60.408 89.556,60.808 C89.556,61.032 89.496,61.228 89.376,61.396 C89.256,61.564 89.1,61.704 88.908,61.816 C88.716,61.928 88.508,62.008 88.284,62.056 C88.06,62.104 87.844,62.128 87.636,62.128 C87.028,62.128 86.512,61.996 86.088,61.732 C85.664,61.468 85.268,61.128 84.9,60.712 L84.9,60.712 L82.98,62.512 C83.572,63.184 84.244,63.648 84.996,63.904 C85.748,64.16 86.572,64.288 87.468,64.288 Z M107.46,64.288 C108.324,64.288 109.14,64.144 109.908,63.856 C110.676,63.568 111.34,63.16 111.9,62.632 C112.46,62.104 112.904,61.468 113.232,60.724 C113.56,59.98 113.724,59.152 113.724,58.24 C113.724,57.328 113.56,56.5 113.232,55.756 C112.904,55.012 112.46,54.376 111.9,53.848 C111.34,53.32 110.676,52.912 109.908,52.624 C109.14,52.336 108.324,52.192 107.46,52.192 C106.596,52.192 105.78,52.336 105.012,52.624 C104.244,52.912 103.58,53.32 103.02,53.848 C102.46,54.376 102.016,55.012 101.688,55.756 C101.36,56.5 101.196,57.328 101.196,58.24 C101.196,59.152 101.36,59.98 101.688,60.724 C102.016,61.468 102.46,62.104 103.02,62.632 C103.58,63.16 104.244,63.568 105.012,63.856 C105.78,64.144 106.596,64.288 107.46,64.288 Z M107.46,61.696 C106.932,61.696 106.46,61.6 106.044,61.408 C105.628,61.216 105.272,60.96 104.976,60.64 C104.68,60.32 104.456,59.952 104.304,59.536 C104.152,59.12 104.076,58.688 104.076,58.24 C104.076,57.792 104.152,57.36 104.304,56.944 C104.456,56.528 104.68,56.16 104.976,55.84 C105.272,55.52 105.628,55.264 106.044,55.072 C106.46,54.88 106.932,54.784 107.46,54.784 C107.988,54.784 108.46,54.88 108.876,55.072 C109.292,55.264 109.648,55.52 109.944,55.84 C110.24,56.16 110.464,56.528 110.616,56.944 C110.768,57.36 110.844,57.792 110.844,58.24 C110.844,58.688 110.768,59.12 110.616,59.536 C110.464,59.952 110.24,60.32 109.944,60.64 C109.648,60.96 109.292,61.216 108.876,61.408 C108.46,61.6 107.988,61.696 107.46,61.696 Z M120.612,64.288 C121.572,64.288 122.332,64.076 122.892,63.652 C123.452,63.228 123.868,62.728 124.14,62.152 L124.14,62.152 L124.188,62.152 L124.188,64 L126.924,64 L126.924,52.48 L124.044,52.48 L124.044,58.768 C124.044,59.152 123.996,59.52 123.9,59.872 C123.804,60.224 123.648,60.536 123.432,60.808 C123.216,61.08 122.944,61.296 122.616,61.456 C122.288,61.616 121.884,61.696 121.404,61.696 C120.892,61.696 120.496,61.58 120.216,61.348 C119.936,61.116 119.728,60.828 119.592,60.484 C119.456,60.14 119.372,59.772 119.34,59.38 C119.308,58.988 119.292,58.632 119.292,58.312 L119.292,58.312 L119.292,52.48 L116.412,52.48 L116.412,59.752 C116.412,60.344 116.484,60.912 116.628,61.456 C116.772,62 117.012,62.484 117.348,62.908 C117.684,63.332 118.12,63.668 118.656,63.916 C119.192,64.164 119.844,64.288 120.612,64.288 Z M134.988,64.288 C135.324,64.288 135.712,64.26 136.152,64.204 C136.592,64.148 136.964,64.048 137.268,63.904 L137.268,63.904 L137.268,61.48 C137.092,61.608 136.852,61.7 136.548,61.756 C136.244,61.812 135.964,61.84 135.708,61.84 C135.068,61.84 134.64,61.672 134.424,61.336 C134.208,61 134.1,60.544 134.1,59.968 L134.1,59.968 L134.1,54.928 L137.268,54.928 L137.268,52.48 L134.1,52.48 L134.1,49.144 L131.22,49.144 L131.22,52.48 L128.844,52.48 L128.844,54.928 L131.22,54.928 L131.22,60.208 C131.22,60.88 131.272,61.472 131.376,61.984 C131.48,62.496 131.672,62.924 131.952,63.268 C132.232,63.612 132.616,63.868 133.104,64.036 C133.592,64.204 134.22,64.288 134.988,64.288 Z" id="Figuringthingsout" fill="#000000" fill-rule="nonzero"></path>
        </g>
        <g id="Group-3" transform="translate(568.000000, 202.000000)">
            <rect id="Rectangle-Copy" fill="#FFFFFF" filter="url(#filter-4)" x="0" y="7" width="162" height="64"></rect>
            <path d="M32.94,31 L32.94,16.888 L32.988,16.888 L38.148,31 L40.26,31 L45.42,16.888 L45.468,16.888 L45.468,31 L48.348,31 L48.348,14.008 L43.788,14.008 L39.204,25.912 L34.668,14.008 L30.06,14.008 L30.06,31 L32.94,31 Z M55.38,31.288 C56.148,31.288 56.852,31.14 57.492,30.844 C58.132,30.548 58.66,30.072 59.076,29.416 L59.076,29.416 L59.148,29.416 L59.148,31 L61.74,31 L61.74,24.376 C61.74,24.104 61.732,23.788 61.716,23.428 C61.7,23.068 61.648,22.696 61.56,22.312 C61.472,21.928 61.328,21.548 61.128,21.172 C60.928,20.796 60.644,20.464 60.276,20.176 C59.908,19.888 59.444,19.652 58.884,19.468 C58.324,19.284 57.636,19.192 56.82,19.192 C55.908,19.192 55.024,19.336 54.168,19.624 C53.312,19.912 52.564,20.384 51.924,21.04 L51.924,21.04 L53.436,22.552 C53.82,22.184 54.276,21.892 54.804,21.676 C55.332,21.46 55.9,21.352 56.508,21.352 C57.276,21.352 57.908,21.532 58.404,21.892 C58.9,22.252 59.148,22.792 59.148,23.512 L59.148,23.512 L59.148,23.824 L58.428,23.824 C57.948,23.824 57.436,23.836 56.892,23.86 C56.348,23.884 55.808,23.94 55.272,24.028 C54.736,24.116 54.22,24.248 53.724,24.424 C53.228,24.6 52.792,24.836 52.416,25.132 C52.04,25.428 51.74,25.796 51.516,26.236 C51.292,26.676 51.18,27.208 51.18,27.832 C51.18,28.408 51.3,28.912 51.54,29.344 C51.78,29.776 52.096,30.136 52.488,30.424 C52.88,30.712 53.328,30.928 53.832,31.072 C54.336,31.216 54.852,31.288 55.38,31.288 Z M56.076,29.128 C55.836,29.128 55.596,29.1 55.356,29.044 C55.116,28.988 54.9,28.896 54.708,28.768 C54.516,28.64 54.36,28.484 54.24,28.3 C54.12,28.116 54.06,27.888 54.06,27.616 C54.06,27.2 54.212,26.876 54.516,26.644 C54.82,26.412 55.192,26.236 55.632,26.116 C56.072,25.996 56.54,25.92 57.036,25.888 C57.532,25.856 57.98,25.84 58.38,25.84 L58.38,25.84 L58.98,25.84 L58.98,26.488 C58.98,27.304 58.744,27.948 58.272,28.42 C57.8,28.892 57.068,29.128 56.076,29.128 Z M67.716,31 L67.716,25.12 L67.764,25.12 L72.348,31 L76.164,31 L70.908,24.712 L75.852,19.48 L72.156,19.48 L67.716,24.256 L67.716,12.856 L64.836,12.856 L64.836,31 L67.716,31 Z M79.188,17.296 C79.716,17.296 80.16,17.132 80.52,16.804 C80.88,16.476 81.06,16.064 81.06,15.568 C81.06,15.072 80.88,14.66 80.52,14.332 C80.16,14.004 79.716,13.84 79.188,13.84 C78.66,13.84 78.224,14.012 77.88,14.356 C77.536,14.7 77.364,15.104 77.364,15.568 C77.364,16.032 77.536,16.436 77.88,16.78 C78.224,17.124 78.66,17.296 79.188,17.296 Z M80.652,31 L80.652,19.48 L77.772,19.48 L77.772,31 L80.652,31 Z M86.844,31 L86.844,24.712 C86.844,24.328 86.892,23.96 86.988,23.608 C87.084,23.256 87.24,22.944 87.456,22.672 C87.672,22.4 87.944,22.184 88.272,22.024 C88.6,21.864 89.004,21.784 89.484,21.784 C89.98,21.784 90.372,21.9 90.66,22.132 C90.948,22.364 91.16,22.652 91.296,22.996 C91.432,23.34 91.516,23.708 91.548,24.1 C91.58,24.492 91.596,24.848 91.596,25.168 L91.596,25.168 L91.596,31 L94.476,31 L94.476,23.728 C94.476,23.136 94.404,22.568 94.26,22.024 C94.116,21.48 93.876,21 93.54,20.584 C93.204,20.168 92.768,19.832 92.232,19.576 C91.696,19.32 91.044,19.192 90.276,19.192 C89.316,19.192 88.556,19.404 87.996,19.828 C87.436,20.252 87.02,20.752 86.748,21.328 L86.748,21.328 L86.7,21.328 L86.7,19.48 L83.964,19.48 L83.964,31 L86.844,31 Z M103.092,36.76 C104.212,36.76 105.18,36.6 105.996,36.28 C106.812,35.96 107.488,35.508 108.024,34.924 C108.56,34.34 108.956,33.628 109.212,32.788 C109.468,31.948 109.596,31.008 109.596,29.968 L109.596,29.968 L109.596,19.48 L106.86,19.48 L106.86,21.208 L106.812,21.208 C106.396,20.504 105.836,19.992 105.132,19.672 C104.428,19.352 103.668,19.192 102.852,19.192 C101.956,19.192 101.16,19.348 100.464,19.66 C99.768,19.972 99.172,20.4 98.676,20.944 C98.18,21.488 97.804,22.128 97.548,22.864 C97.292,23.6 97.164,24.392 97.164,25.24 C97.164,26.056 97.3,26.824 97.572,27.544 C97.844,28.264 98.232,28.888 98.736,29.416 C99.24,29.944 99.844,30.364 100.548,30.676 C101.252,30.988 102.036,31.144 102.9,31.144 C103.62,31.144 104.324,31.004 105.012,30.724 C105.7,30.444 106.252,30.024 106.668,29.464 L106.668,29.464 L106.716,29.464 L106.716,30.304 C106.716,30.88 106.656,31.404 106.536,31.876 C106.416,32.348 106.216,32.752 105.936,33.088 C105.656,33.424 105.28,33.688 104.808,33.88 C104.336,34.072 103.756,34.168 103.068,34.168 C102.252,34.168 101.532,34.024 100.908,33.736 C100.284,33.448 99.684,33.04 99.108,32.512 L99.108,32.512 L97.38,34.864 C98.196,35.584 99.084,36.08 100.044,36.352 C101.004,36.624 102.02,36.76 103.092,36.76 Z M103.428,28.552 C102.948,28.552 102.5,28.464 102.084,28.288 C101.668,28.112 101.308,27.872 101.004,27.568 C100.7,27.264 100.464,26.912 100.296,26.512 C100.128,26.112 100.044,25.68 100.044,25.216 C100.044,24.704 100.128,24.236 100.296,23.812 C100.464,23.388 100.696,23.028 100.992,22.732 C101.288,22.436 101.644,22.204 102.06,22.036 C102.476,21.868 102.94,21.784 103.452,21.784 C104.508,21.784 105.34,22.096 105.948,22.72 C106.556,23.344 106.86,24.16 106.86,25.168 C106.86,25.648 106.78,26.096 106.62,26.512 C106.46,26.928 106.232,27.284 105.936,27.58 C105.64,27.876 105.28,28.112 104.856,28.288 C104.432,28.464 103.956,28.552 103.428,28.552 Z M121.428,17.296 C121.956,17.296 122.4,17.132 122.76,16.804 C123.12,16.476 123.3,16.064 123.3,15.568 C123.3,15.072 123.12,14.66 122.76,14.332 C122.4,14.004 121.956,13.84 121.428,13.84 C120.9,13.84 120.464,14.012 120.12,14.356 C119.776,14.7 119.604,15.104 119.604,15.568 C119.604,16.032 119.776,16.436 120.12,16.78 C120.464,17.124 120.9,17.296 121.428,17.296 Z M122.892,31 L122.892,19.48 L120.012,19.48 L120.012,31 L122.892,31 Z M131.004,31.288 C131.34,31.288 131.728,31.26 132.168,31.204 C132.608,31.148 132.98,31.048 133.284,30.904 L133.284,30.904 L133.284,28.48 C133.108,28.608 132.868,28.7 132.564,28.756 C132.26,28.812 131.98,28.84 131.724,28.84 C131.084,28.84 130.656,28.672 130.44,28.336 C130.224,28 130.116,27.544 130.116,26.968 L130.116,26.968 L130.116,21.928 L133.284,21.928 L133.284,19.48 L130.116,19.48 L130.116,16.144 L127.236,16.144 L127.236,19.48 L124.86,19.48 L124.86,21.928 L127.236,21.928 L127.236,27.208 C127.236,27.88 127.288,28.472 127.392,28.984 C127.496,29.496 127.688,29.924 127.968,30.268 C128.248,30.612 128.632,30.868 129.12,31.036 C129.608,31.204 130.236,31.288 131.004,31.288 Z M43.284,64 L43.284,57.712 C43.284,57.328 43.332,56.96 43.428,56.608 C43.524,56.256 43.68,55.944 43.896,55.672 C44.112,55.4 44.384,55.184 44.712,55.024 C45.04,54.864 45.444,54.784 45.924,54.784 C46.42,54.784 46.812,54.9 47.1,55.132 C47.388,55.364 47.6,55.652 47.736,55.996 C47.872,56.34 47.956,56.708 47.988,57.1 C48.02,57.492 48.036,57.848 48.036,58.168 L48.036,58.168 L48.036,64 L50.916,64 L50.916,56.728 C50.916,56.136 50.844,55.568 50.7,55.024 C50.556,54.48 50.316,54 49.98,53.584 C49.644,53.168 49.208,52.832 48.672,52.576 C48.136,52.32 47.484,52.192 46.716,52.192 C45.82,52.192 45.088,52.388 44.52,52.78 C43.952,53.172 43.556,53.608 43.332,54.088 L43.332,54.088 L43.284,54.088 L43.284,45.856 L40.404,45.856 L40.404,64 L43.284,64 Z M57.612,64.288 C58.38,64.288 59.084,64.14 59.724,63.844 C60.364,63.548 60.892,63.072 61.308,62.416 L61.308,62.416 L61.38,62.416 L61.38,64 L63.972,64 L63.972,57.376 C63.972,57.104 63.964,56.788 63.948,56.428 C63.932,56.068 63.88,55.696 63.792,55.312 C63.704,54.928 63.56,54.548 63.36,54.172 C63.16,53.796 62.876,53.464 62.508,53.176 C62.14,52.888 61.676,52.652 61.116,52.468 C60.556,52.284 59.868,52.192 59.052,52.192 C58.14,52.192 57.256,52.336 56.4,52.624 C55.544,52.912 54.796,53.384 54.156,54.04 L54.156,54.04 L55.668,55.552 C56.052,55.184 56.508,54.892 57.036,54.676 C57.564,54.46 58.132,54.352 58.74,54.352 C59.508,54.352 60.14,54.532 60.636,54.892 C61.132,55.252 61.38,55.792 61.38,56.512 L61.38,56.512 L61.38,56.824 L60.66,56.824 C60.18,56.824 59.668,56.836 59.124,56.86 C58.58,56.884 58.04,56.94 57.504,57.028 C56.968,57.116 56.452,57.248 55.956,57.424 C55.46,57.6 55.024,57.836 54.648,58.132 C54.272,58.428 53.972,58.796 53.748,59.236 C53.524,59.676 53.412,60.208 53.412,60.832 C53.412,61.408 53.532,61.912 53.772,62.344 C54.012,62.776 54.328,63.136 54.72,63.424 C55.112,63.712 55.56,63.928 56.064,64.072 C56.568,64.216 57.084,64.288 57.612,64.288 Z M58.308,62.128 C58.068,62.128 57.828,62.1 57.588,62.044 C57.348,61.988 57.132,61.896 56.94,61.768 C56.748,61.64 56.592,61.484 56.472,61.3 C56.352,61.116 56.292,60.888 56.292,60.616 C56.292,60.2 56.444,59.876 56.748,59.644 C57.052,59.412 57.424,59.236 57.864,59.116 C58.304,58.996 58.772,58.92 59.268,58.888 C59.764,58.856 60.212,58.84 60.612,58.84 L60.612,58.84 L61.212,58.84 L61.212,59.488 C61.212,60.304 60.976,60.948 60.504,61.42 C60.032,61.892 59.3,62.128 58.308,62.128 Z M69.948,69.472 L69.948,62.536 L70.02,62.536 C70.164,62.728 70.348,62.924 70.572,63.124 C70.796,63.324 71.068,63.512 71.388,63.688 C71.708,63.864 72.076,64.008 72.492,64.12 C72.908,64.232 73.388,64.288 73.932,64.288 C74.748,64.288 75.5,64.132 76.188,63.82 C76.876,63.508 77.464,63.08 77.952,62.536 C78.44,61.992 78.82,61.352 79.092,60.616 C79.364,59.88 79.5,59.088 79.5,58.24 C79.5,57.392 79.372,56.6 79.116,55.864 C78.86,55.128 78.484,54.488 77.988,53.944 C77.492,53.4 76.892,52.972 76.188,52.66 C75.484,52.348 74.692,52.192 73.812,52.192 C72.996,52.192 72.236,52.352 71.532,52.672 C70.828,52.992 70.268,53.504 69.852,54.208 L69.852,54.208 L69.804,54.208 L69.804,52.48 L67.068,52.48 L67.068,69.472 L69.948,69.472 Z M73.236,61.696 C72.708,61.696 72.236,61.6 71.82,61.408 C71.404,61.216 71.048,60.96 70.752,60.64 C70.456,60.32 70.232,59.952 70.08,59.536 C69.928,59.12 69.852,58.688 69.852,58.24 C69.852,57.792 69.928,57.36 70.08,56.944 C70.232,56.528 70.456,56.16 70.752,55.84 C71.048,55.52 71.404,55.264 71.82,55.072 C72.236,54.88 72.708,54.784 73.236,54.784 C73.764,54.784 74.236,54.88 74.652,55.072 C75.068,55.264 75.424,55.52 75.72,55.84 C76.016,56.16 76.24,56.528 76.392,56.944 C76.544,57.36 76.62,57.792 76.62,58.24 C76.62,58.688 76.544,59.12 76.392,59.536 C76.24,59.952 76.016,60.32 75.72,60.64 C75.424,60.96 75.068,61.216 74.652,61.408 C74.236,61.6 73.764,61.696 73.236,61.696 Z M85.068,69.472 L85.068,62.536 L85.14,62.536 C85.284,62.728 85.468,62.924 85.692,63.124 C85.916,63.324 86.188,63.512 86.508,63.688 C86.828,63.864 87.196,64.008 87.612,64.12 C88.028,64.232 88.508,64.288 89.052,64.288 C89.868,64.288 90.62,64.132 91.308,63.82 C91.996,63.508 92.584,63.08 93.072,62.536 C93.56,61.992 93.94,61.352 94.212,60.616 C94.484,59.88 94.62,59.088 94.62,58.24 C94.62,57.392 94.492,56.6 94.236,55.864 C93.98,55.128 93.604,54.488 93.108,53.944 C92.612,53.4 92.012,52.972 91.308,52.66 C90.604,52.348 89.812,52.192 88.932,52.192 C88.116,52.192 87.356,52.352 86.652,52.672 C85.948,52.992 85.388,53.504 84.972,54.208 L84.972,54.208 L84.924,54.208 L84.924,52.48 L82.188,52.48 L82.188,69.472 L85.068,69.472 Z M88.356,61.696 C87.828,61.696 87.356,61.6 86.94,61.408 C86.524,61.216 86.168,60.96 85.872,60.64 C85.576,60.32 85.352,59.952 85.2,59.536 C85.048,59.12 84.972,58.688 84.972,58.24 C84.972,57.792 85.048,57.36 85.2,56.944 C85.352,56.528 85.576,56.16 85.872,55.84 C86.168,55.52 86.524,55.264 86.94,55.072 C87.356,54.88 87.828,54.784 88.356,54.784 C88.884,54.784 89.356,54.88 89.772,55.072 C90.188,55.264 90.544,55.52 90.84,55.84 C91.136,56.16 91.36,56.528 91.512,56.944 C91.664,57.36 91.74,57.792 91.74,58.24 C91.74,58.688 91.664,59.12 91.512,59.536 C91.36,59.952 91.136,60.32 90.84,60.64 C90.544,60.96 90.188,61.216 89.772,61.408 C89.356,61.6 88.884,61.696 88.356,61.696 Z M102.996,64.288 C103.908,64.288 104.78,64.112 105.612,63.76 C106.444,63.408 107.196,62.816 107.868,61.984 L107.868,61.984 L105.804,60.424 C105.436,60.872 105.008,61.244 104.52,61.54 C104.032,61.836 103.428,61.984 102.708,61.984 C101.892,61.984 101.196,61.744 100.62,61.264 C100.044,60.784 99.708,60.112 99.612,59.248 L99.612,59.248 L108.396,59.248 L108.396,58.456 C108.396,57.448 108.264,56.556 108,55.78 C107.736,55.004 107.368,54.352 106.896,53.824 C106.424,53.296 105.856,52.892 105.192,52.612 C104.528,52.332 103.796,52.192 102.996,52.192 C102.132,52.192 101.316,52.336 100.548,52.624 C99.78,52.912 99.116,53.32 98.556,53.848 C97.996,54.376 97.552,55.012 97.224,55.756 C96.896,56.5 96.732,57.328 96.732,58.24 C96.732,59.152 96.896,59.98 97.224,60.724 C97.552,61.468 97.996,62.104 98.556,62.632 C99.116,63.16 99.78,63.568 100.548,63.856 C101.316,64.144 102.132,64.288 102.996,64.288 Z M105.516,57.088 L99.612,57.088 C99.724,56.256 100.032,55.592 100.536,55.096 C101.04,54.6 101.724,54.352 102.588,54.352 C103.5,54.352 104.212,54.596 104.724,55.084 C105.236,55.572 105.5,56.24 105.516,57.088 L105.516,57.088 Z M113.964,64 L113.964,57.712 C113.964,57.328 114.012,56.96 114.108,56.608 C114.204,56.256 114.36,55.944 114.576,55.672 C114.792,55.4 115.064,55.184 115.392,55.024 C115.72,54.864 116.124,54.784 116.604,54.784 C117.1,54.784 117.492,54.9 117.78,55.132 C118.068,55.364 118.28,55.652 118.416,55.996 C118.552,56.34 118.636,56.708 118.668,57.1 C118.7,57.492 118.716,57.848 118.716,58.168 L118.716,58.168 L118.716,64 L121.596,64 L121.596,56.728 C121.596,56.136 121.524,55.568 121.38,55.024 C121.236,54.48 120.996,54 120.66,53.584 C120.324,53.168 119.888,52.832 119.352,52.576 C118.816,52.32 118.164,52.192 117.396,52.192 C116.436,52.192 115.676,52.404 115.116,52.828 C114.556,53.252 114.14,53.752 113.868,54.328 L113.868,54.328 L113.82,54.328 L113.82,52.48 L111.084,52.48 L111.084,64 L113.964,64 Z" id="Makingithappen" fill="#000000" fill-rule="nonzero"></path>
        </g>
        <line x1="512.5" y1="78.5" x2="512.5" y2="322.5" id="Line" stroke="#FCFCFC" stroke-width="3" stroke-linecap="square"></line>
    </g>
</svg>