<?xml version="1.0" encoding="UTF-8"?>
<svg width="1024px" height="338px" viewBox="0 0 1024 338" version="1.1" xmlns="http://www.w3.org/2000/svg" xmlns:xlink="http://www.w3.org/1999/xlink">
    <!-- Generator: Sketch 63.1 (92452) - https://sketch.com -->
    <title>Artboard</title>
    <desc>Created with Sketch.</desc>
    <defs>
        <linearGradient x1="50%" y1="78.8983319%" x2="50%" y2="0%" id="linearGradient-1">
            <stop stop-color="#FCFCFC" stop-opacity="0" offset="0%"></stop>
            <stop stop-color="#6CCC00" stop-opacity="0.515269886" offset="100%"></stop>
        </linearGradient>
        <linearGradient x1="50%" y1="78.8983319%" x2="50%" y2="0%" id="linearGradient-2">
            <stop stop-color="#FCFCFC" stop-opacity="0" offset="0%"></stop>
            <stop stop-color="#00BDCC" stop-opacity="0.542422421" offset="100%"></stop>
        </linearGradient>
        <filter x="-35.2%" y="-89.1%" width="170.4%" height="278.1%" filterUnits="objectBoundingBox" id="filter-3">
            <feGaussianBlur stdDeviation="19" in="SourceGraphic"></feGaussianBlur>
        </filter>
        <filter x="-35.2%" y="-89.1%" width="170.4%" height="278.1%" filterUnits="objectBoundingBox" id="filter-4">
            <feGaussianBlur stdDeviation="19" in="SourceGraphic"></feGaussianBlur>
        </filter>
    </defs>
    <g id="Artboard" stroke="none" stroke-width="1" fill="none" fill-rule="evenodd">
        <g id="Curve" transform="translate(0.000000, 56.000000)">
            <path d="M0,282 C28.5531255,282 74.2593132,260.256365 137.118563,216.769095 C244.303193,142.616652 356.808506,0 512,0 L516.642976,0.0425739148 C669.441068,2.84548662 780.768653,143.358177 886.881437,216.769095 C949.740687,260.256365 995.446875,282 1024,282 L1024,282 L0,282 Z" id="Combined-Shape" fill="#FCFCFC"></path>
            <path d="M512,-4.26325641e-14 L516.642976,0.0425739148 C669.441068,2.84548662 780.768653,143.358177 886.881437,216.769095 C892.548262,220.689516 898.07568,224.433222 903.463692,228.000214 L512,228 L512,-4.26325641e-14 L512,-4.26325641e-14 Z" id="Combined-Shape" fill="url(#linearGradient-1)"></path>
            <path d="M120,-4.26325641e-14 L124.642976,0.0425739148 C277.441068,2.84548662 388.768653,143.358177 494.881437,216.769095 C500.548262,220.689516 506.07568,224.433222 511.463692,228.000214 L120,228 L120,-4.26325641e-14 L120,-4.26325641e-14 Z" id="Combined-Shape-Copy-4" fill="url(#linearGradient-2)" transform="translate(315.731846, 114.000107) scale(-1, 1) translate(-315.731846, -114.000107) "></path>
            <path d="M0,277 C28.5531255,277 74.2593132,255.64189 137.118563,212.925671 C244.303193,140.087988 356.808506,0 512,0 C667.191494,0 779.699695,140.088969 886.885769,212.928615 C949.741284,255.642872 995.446028,277 1024,277" id="Path-Copy" stroke="#7E7E7E" stroke-width="10" stroke-linecap="round"></path>
        </g>
        <g id="Start-Here" transform="translate(422.000000, 0.000000)">
            <circle id="Oval" stroke="#FFFFFF" stroke-width="5" fill="#6CCC00" cx="89.5" cy="56.5" r="19"></circle>
            <rect id="Rectangle" fill="#6CCC00" x="73" y="36" width="33" height="21"></rect>
            <circle id="Oval-Copy" fill="#88FF00" cx="89.5" cy="56.5" r="10.5"></circle>
            <g id="Group">
                <rect id="Rectangle" fill="#6CCC00" x="0" y="0" width="179" height="42" rx="6"></rect>
                <path d="M24.96,32.32 C26,32.32 26.99,32.18 27.93,31.9 C28.87,31.62 29.695,31.2 30.405,30.64 C31.115,30.08 31.68,29.375 32.1,28.525 C32.52,27.675 32.73,26.68 32.73,25.54 C32.73,24.28 32.48,23.27 31.98,22.51 C31.48,21.75 30.86,21.14 30.12,20.68 C29.38,20.22 28.57,19.86 27.69,19.6 C26.81,19.34 26,19.07 25.26,18.79 C24.52,18.51 23.9,18.18 23.4,17.8 C22.9,17.42 22.65,16.87 22.65,16.15 C22.65,15.67 22.75,15.255 22.95,14.905 C23.15,14.555 23.415,14.27 23.745,14.05 C24.075,13.83 24.445,13.67 24.855,13.57 C25.265,13.47 25.69,13.42 26.13,13.42 C26.87,13.42 27.575,13.555 28.245,13.825 C28.915,14.095 29.45,14.52 29.85,15.1 L29.85,15.1 L32.61,12.19 C31.77,11.41 30.825,10.85 29.775,10.51 C28.725,10.17 27.64,10 26.52,10 C25.54,10 24.58,10.13 23.64,10.39 C22.7,10.65 21.865,11.045 21.135,11.575 C20.405,12.105 19.815,12.77 19.365,13.57 C18.915,14.37 18.69,15.32 18.69,16.42 C18.69,17.68 18.94,18.685 19.44,19.435 C19.94,20.185 20.56,20.785 21.3,21.235 C22.04,21.685 22.85,22.04 23.73,22.3 C24.61,22.56 25.42,22.835 26.16,23.125 C26.9,23.415 27.52,23.77 28.02,24.19 C28.52,24.61 28.77,25.21 28.77,25.99 C28.77,26.47 28.66,26.895 28.44,27.265 C28.22,27.635 27.93,27.94 27.57,28.18 C27.21,28.42 26.81,28.6 26.37,28.72 C25.93,28.84 25.49,28.9 25.05,28.9 C24.21,28.9 23.415,28.705 22.665,28.315 C21.915,27.925 21.31,27.38 20.85,26.68 L20.85,26.68 L18,29.44 C18.88,30.48 19.93,31.22 21.15,31.66 C22.37,32.1 23.64,32.32 24.96,32.32 Z M42.33,32.14 C42.75,32.14 43.235,32.105 43.785,32.035 C44.335,31.965 44.8,31.84 45.18,31.66 L45.18,31.66 L45.18,28.63 C44.96,28.79 44.66,28.905 44.28,28.975 C43.9,29.045 43.55,29.08 43.23,29.08 C42.43,29.08 41.895,28.87 41.625,28.45 C41.355,28.03 41.22,27.46 41.22,26.74 L41.22,26.74 L41.22,20.44 L45.18,20.44 L45.18,17.38 L41.22,17.38 L41.22,13.21 L37.62,13.21 L37.62,17.38 L34.65,17.38 L34.65,20.44 L37.62,20.44 L37.62,27.04 C37.62,27.88 37.685,28.62 37.815,29.26 C37.945,29.9 38.185,30.435 38.535,30.865 C38.885,31.295 39.365,31.615 39.975,31.825 C40.585,32.035 41.37,32.14 42.33,32.14 Z M52.29,32.14 C53.25,32.14 54.13,31.955 54.93,31.585 C55.73,31.215 56.39,30.62 56.91,29.8 L56.91,29.8 L57,29.8 L57,31.78 L60.24,31.78 L60.24,23.5 C60.24,23.16 60.23,22.765 60.21,22.315 C60.19,21.865 60.125,21.4 60.015,20.92 C59.905,20.44 59.725,19.965 59.475,19.495 C59.225,19.025 58.87,18.61 58.41,18.25 C57.95,17.89 57.37,17.595 56.67,17.365 C55.97,17.135 55.11,17.02 54.09,17.02 C52.95,17.02 51.845,17.2 50.775,17.56 C49.705,17.92 48.77,18.51 47.97,19.33 L47.97,19.33 L49.86,21.22 C50.34,20.76 50.91,20.395 51.57,20.125 C52.23,19.855 52.94,19.72 53.7,19.72 C54.66,19.72 55.45,19.945 56.07,20.395 C56.69,20.845 57,21.52 57,22.42 L57,22.42 L57,22.81 L56.1,22.81 C55.5,22.81 54.86,22.825 54.18,22.855 C53.5,22.885 52.825,22.955 52.155,23.065 C51.485,23.175 50.84,23.34 50.22,23.56 C49.6,23.78 49.055,24.075 48.585,24.445 C48.115,24.815 47.74,25.275 47.46,25.825 C47.18,26.375 47.04,27.04 47.04,27.82 C47.04,28.54 47.19,29.17 47.49,29.71 C47.79,30.25 48.185,30.7 48.675,31.06 C49.165,31.42 49.725,31.69 50.355,31.87 C50.985,32.05 51.63,32.14 52.29,32.14 Z M53.16,29.44 C52.86,29.44 52.56,29.405 52.26,29.335 C51.96,29.265 51.69,29.15 51.45,28.99 C51.21,28.83 51.015,28.635 50.865,28.405 C50.715,28.175 50.64,27.89 50.64,27.55 C50.64,27.03 50.83,26.625 51.21,26.335 C51.59,26.045 52.055,25.825 52.605,25.675 C53.155,25.525 53.74,25.43 54.36,25.39 C54.98,25.35 55.54,25.33 56.04,25.33 L56.04,25.33 L56.79,25.33 L56.79,26.14 C56.79,27.16 56.495,27.965 55.905,28.555 C55.315,29.145 54.4,29.44 53.16,29.44 Z M67.71,31.78 L67.71,24.07 C67.71,23.87 67.755,23.57 67.845,23.17 C67.935,22.77 68.115,22.37 68.385,21.97 C68.655,21.57 69.045,21.215 69.555,20.905 C70.065,20.595 70.74,20.44 71.58,20.44 C71.86,20.44 72.145,20.465 72.435,20.515 C72.725,20.565 73.02,20.63 73.32,20.71 L73.32,20.71 L73.32,17.23 C73.1,17.17 72.885,17.12 72.675,17.08 C72.465,17.04 72.25,17.02 72.03,17.02 C71.07,17.02 70.22,17.25 69.48,17.71 C68.74,18.17 68.17,18.82 67.77,19.66 L67.77,19.66 L67.71,19.66 L67.71,17.38 L64.11,17.38 L64.11,31.78 L67.71,31.78 Z M81.78,32.14 C82.2,32.14 82.685,32.105 83.235,32.035 C83.785,31.965 84.25,31.84 84.63,31.66 L84.63,31.66 L84.63,28.63 C84.41,28.79 84.11,28.905 83.73,28.975 C83.35,29.045 83,29.08 82.68,29.08 C81.88,29.08 81.345,28.87 81.075,28.45 C80.805,28.03 80.67,27.46 80.67,26.74 L80.67,26.74 L80.67,20.44 L84.63,20.44 L84.63,17.38 L80.67,17.38 L80.67,13.21 L77.07,13.21 L77.07,17.38 L74.1,17.38 L74.1,20.44 L77.07,20.44 L77.07,27.04 C77.07,27.88 77.135,28.62 77.265,29.26 C77.395,29.9 77.635,30.435 77.985,30.865 C78.335,31.295 78.815,31.615 79.425,31.825 C80.035,32.035 80.82,32.14 81.78,32.14 Z M100.44,31.78 L100.44,22.42 L110.37,22.42 L110.37,31.78 L114.15,31.78 L114.15,10.54 L110.37,10.54 L110.37,19 L100.44,19 L100.44,10.54 L96.66,10.54 L96.66,31.78 L100.44,31.78 Z M125.67,32.14 C126.81,32.14 127.9,31.92 128.94,31.48 C129.98,31.04 130.92,30.3 131.76,29.26 L131.76,29.26 L129.18,27.31 C128.72,27.87 128.185,28.335 127.575,28.705 C126.965,29.075 126.21,29.26 125.31,29.26 C124.29,29.26 123.42,28.96 122.7,28.36 C121.98,27.76 121.56,26.92 121.44,25.84 L121.44,25.84 L132.42,25.84 L132.42,24.85 C132.42,23.59 132.255,22.475 131.925,21.505 C131.595,20.535 131.135,19.72 130.545,19.06 C129.955,18.4 129.245,17.895 128.415,17.545 C127.585,17.195 126.67,17.02 125.67,17.02 C124.59,17.02 123.57,17.2 122.61,17.56 C121.65,17.92 120.82,18.43 120.12,19.09 C119.42,19.75 118.865,20.545 118.455,21.475 C118.045,22.405 117.84,23.44 117.84,24.58 C117.84,25.72 118.045,26.755 118.455,27.685 C118.865,28.615 119.42,29.41 120.12,30.07 C120.82,30.73 121.65,31.24 122.61,31.6 C123.57,31.96 124.59,32.14 125.67,32.14 Z M128.82,23.14 L121.44,23.14 C121.58,22.1 121.965,21.27 122.595,20.65 C123.225,20.03 124.08,19.72 125.16,19.72 C126.3,19.72 127.19,20.025 127.83,20.635 C128.47,21.245 128.8,22.08 128.82,23.14 L128.82,23.14 Z M139.38,31.78 L139.38,24.07 C139.38,23.87 139.425,23.57 139.515,23.17 C139.605,22.77 139.785,22.37 140.055,21.97 C140.325,21.57 140.715,21.215 141.225,20.905 C141.735,20.595 142.41,20.44 143.25,20.44 C143.53,20.44 143.815,20.465 144.105,20.515 C144.395,20.565 144.69,20.63 144.99,20.71 L144.99,20.71 L144.99,17.23 C144.77,17.17 144.555,17.12 144.345,17.08 C144.135,17.04 143.92,17.02 143.7,17.02 C142.74,17.02 141.89,17.25 141.15,17.71 C140.41,18.17 139.84,18.82 139.44,19.66 L139.44,19.66 L139.38,19.66 L139.38,17.38 L135.78,17.38 L135.78,31.78 L139.38,31.78 Z M154.02,32.14 C155.16,32.14 156.25,31.92 157.29,31.48 C158.33,31.04 159.27,30.3 160.11,29.26 L160.11,29.26 L157.53,27.31 C157.07,27.87 156.535,28.335 155.925,28.705 C155.315,29.075 154.56,29.26 153.66,29.26 C152.64,29.26 151.77,28.96 151.05,28.36 C150.33,27.76 149.91,26.92 149.79,25.84 L149.79,25.84 L160.77,25.84 L160.77,24.85 C160.77,23.59 160.605,22.475 160.275,21.505 C159.945,20.535 159.485,19.72 158.895,19.06 C158.305,18.4 157.595,17.895 156.765,17.545 C155.935,17.195 155.02,17.02 154.02,17.02 C152.94,17.02 151.92,17.2 150.96,17.56 C150,17.92 149.17,18.43 148.47,19.09 C147.77,19.75 147.215,20.545 146.805,21.475 C146.395,22.405 146.19,23.44 146.19,24.58 C146.19,25.72 146.395,26.755 146.805,27.685 C147.215,28.615 147.77,29.41 148.47,30.07 C149.17,30.73 150,31.24 150.96,31.6 C151.92,31.96 152.94,32.14 154.02,32.14 Z M157.17,23.14 L149.79,23.14 C149.93,22.1 150.315,21.27 150.945,20.65 C151.575,20.03 152.43,19.72 153.51,19.72 C154.65,19.72 155.54,20.025 156.18,20.635 C156.82,21.245 157.15,22.08 157.17,23.14 L157.17,23.14 Z" id="StartHere" fill="#FFFFFF" fill-rule="nonzero"></path>
            </g>
        </g>
        <g id="Group-2" transform="translate(292.000000, 209.000000)">
            <rect id="Rectangle" fill="#FFFFFF" filter="url(#filter-3)" x="0" y="0" width="162" height="64"></rect>
            <path d="M42.7129389,24.4733365 L42.7129389,17.3973572 L50.2187906,17.3973572 L50.2187906,14.6536102 L42.7129389,14.6536102 L42.7129389,10.1769703 L50.6758778,10.1769703 L50.6758778,7.43322322 L39.6817295,7.43322322 L39.6817295,24.4733365 L42.7129389,24.4733365 Z M56.4496099,24.4733365 L56.4496099,7.43322322 L53.4184005,7.43322322 L53.4184005,24.4733365 L56.4496099,24.4733365 Z M68.2617035,24.9065597 C70.859883,24.9065597 73.2094712,24.344974 75.3104681,23.2218027 L75.3104681,23.2218027 L75.3104681,14.5092025 L68.7909623,14.5092025 L68.7909623,17.2529495 L72.2792588,17.2529495 L72.2792588,21.2722983 C71.75,21.577159 71.14456,21.8017933 70.4629389,21.946201 C69.7813177,22.0906088 69.0555917,22.1628126 68.2857607,22.1628126 C67.4036628,22.1628126 66.6057651,22.0023596 65.8920676,21.6814535 C65.1783702,21.3605474 64.5649111,20.9193016 64.0516905,20.3577159 C63.5384699,19.7961303 63.1415258,19.1302501 62.8608583,18.3600755 C62.5801907,17.5899009 62.439857,16.7475224 62.439857,15.8329401 C62.439857,14.9825389 62.5801907,14.1882964 62.8608583,13.4502124 C63.1415258,12.7121284 63.5384699,12.0663049 64.0516905,11.5127419 C64.5649111,10.9591789 65.1783702,10.5259556 65.8920676,10.2130722 C66.6057651,9.90018877 67.4036628,9.74374705 68.2857607,9.74374705 C69.1518205,9.74374705 69.9737755,9.88815479 70.7516255,10.1769703 C71.5294755,10.4657857 72.191049,10.874941 72.7363459,11.4044361 L72.7363459,11.4044361 L74.9736671,9.14204814 C74.075531,8.33978292 73.0571088,7.78220859 71.9184005,7.46932515 C70.7796922,7.15644172 69.5607932,7 68.2617035,7 C66.9465756,7 65.7397052,7.21260028 64.6410923,7.63780085 C63.5424794,8.06300142 62.5962289,8.66871166 61.8023407,9.45493157 C61.0084525,10.2411515 60.3869744,11.1918358 59.9379064,12.3069844 C59.4888383,13.4221331 59.2643043,14.6616328 59.2643043,16.0254837 C59.2643043,17.357244 59.4888383,18.5686645 59.9379064,19.6597452 C60.3869744,20.7508259 61.0084525,21.6854648 61.8023407,22.4636621 C62.5962289,23.2418594 63.5424794,23.8435583 64.6410923,24.2687588 C65.7397052,24.6939594 66.9465756,24.9065597 68.2617035,24.9065597 Z M85.6791287,24.9065597 C86.6574556,24.9065597 87.5636107,24.750118 88.3975943,24.4372345 C89.2315778,24.1243511 89.9532943,23.6790939 90.5627438,23.101463 C91.1721933,22.523832 91.6533377,21.8218499 92.0061769,20.9955168 C92.359016,20.1691836 92.5354356,19.2425672 92.5354356,18.2156678 L92.5354356,18.2156678 L92.5354356,7.43322322 L89.5042263,7.43322322 L89.5042263,18.1193959 C89.5042263,18.5365739 89.4400737,18.9738084 89.3117685,19.4310996 C89.1834634,19.8883908 88.970958,20.30958 88.6742523,20.6946673 C88.3775466,21.0797546 87.9846121,21.3966494 87.4954486,21.6453516 C87.0062852,21.8940538 86.4008453,22.0184049 85.6791287,22.0184049 C84.9574122,22.0184049 84.3519723,21.8940538 83.8628088,21.6453516 C83.3736454,21.3966494 82.9807109,21.0797546 82.6840052,20.6946673 C82.3872995,20.30958 82.1747941,19.8883908 82.0464889,19.4310996 C81.9181838,18.9738084 81.8540312,18.5365739 81.8540312,18.1193959 L81.8540312,18.1193959 L81.8540312,7.43322322 L78.8228218,7.43322322 L78.8228218,18.2156678 C78.8228218,19.2425672 78.9952319,20.1691836 79.340052,20.9955168 C79.6848721,21.8218499 80.1660165,22.523832 80.783485,23.101463 C81.4009536,23.6790939 82.1266797,24.1243511 82.9606632,24.4372345 C83.7946467,24.750118 84.7008019,24.9065597 85.6791287,24.9065597 Z M99.2955137,24.4733365 L99.2955137,17.2529495 L101.508778,17.2529495 L105.454161,24.4733365 L109.110858,24.4733365 L104.588101,16.9400661 C105.855115,16.7635677 106.829432,16.2581406 107.511053,15.4237848 C108.192674,14.589429 108.533485,13.5545068 108.533485,12.3190184 C108.533485,11.3563001 108.357065,10.5620576 108.004226,9.9362907 C107.651387,9.31052383 107.178262,8.8131194 106.58485,8.44407739 C105.991439,8.07503539 105.313827,7.8142992 104.552016,7.66186881 C103.790204,7.50943841 103.000325,7.43322322 102.18238,7.43322322 L102.18238,7.43322322 L96.2643043,7.43322322 L96.2643043,24.4733365 L99.2955137,24.4733365 Z M101.653121,14.6536102 L99.2955137,14.6536102 L99.2955137,10.0325625 L101.91775,10.0325625 C102.302666,10.0325625 102.69961,10.0566305 103.108583,10.1047664 C103.517555,10.1529023 103.890442,10.2531855 104.227243,10.4056159 C104.564044,10.5580462 104.836693,10.7866918 105.045189,11.0915526 C105.253684,11.3964134 105.357932,11.797546 105.357932,12.2949504 C105.357932,12.8565361 105.245665,13.2937706 105.021131,13.6066541 C104.796597,13.9195375 104.503901,14.1521944 104.143043,14.3046248 C103.782185,14.4570552 103.385241,14.553327 102.952211,14.5934403 C102.519181,14.6335536 102.086151,14.6536102 101.653121,14.6536102 L101.653121,14.6536102 Z M123.136216,24.4733365 L123.136216,21.7295894 L114.45156,21.7295894 L114.45156,17.1085418 L122.270156,17.1085418 L122.270156,14.3647947 L114.45156,14.3647947 L114.45156,10.1769703 L122.703186,10.1769703 L122.703186,7.43322322 L111.420351,7.43322322 L111.420351,24.4733365 L123.136216,24.4733365 Z M15.2516255,57.5667768 L15.2516255,43.2704106 L20.4720416,43.2704106 L20.4720416,40.5266635 L7,40.5266635 L7,43.2704106 L12.2204161,43.2704106 L12.2204161,57.5667768 L15.2516255,57.5667768 Z M25.5721717,57.5667768 L25.5721717,50.0575743 L33.5351105,50.0575743 L33.5351105,57.5667768 L36.5663199,57.5667768 L36.5663199,40.5266635 L33.5351105,40.5266635 L33.5351105,47.3138273 L25.5721717,47.3138273 L25.5721717,40.5266635 L22.5409623,40.5266635 L22.5409623,57.5667768 L25.5721717,57.5667768 Z M43.3263979,57.5667768 L43.3263979,40.5266635 L40.2951886,40.5266635 L40.2951886,57.5667768 L43.3263979,57.5667768 Z M50.0864759,57.5667768 L50.0864759,44.4978764 L50.1345904,44.4978764 L58.5546164,57.5667768 L62.4037711,57.5667768 L62.4037711,40.5266635 L59.3725618,40.5266635 L59.3725618,53.1864087 L59.3244473,53.1864087 L51.0728218,40.5266635 L47.0552666,40.5266635 L47.0552666,57.5667768 L50.0864759,57.5667768 Z M74.2880364,58 C76.8862159,58 79.2358041,57.4384143 81.336801,56.315243 L81.336801,56.315243 L81.336801,47.6026428 L74.8172952,47.6026428 L74.8172952,50.3463898 L78.3055917,50.3463898 L78.3055917,54.3657386 C77.7763329,54.6705993 77.1708929,54.8952336 76.4892718,55.0396413 C75.8076506,55.1840491 75.0819246,55.2562529 74.3120936,55.2562529 C73.4299957,55.2562529 72.632098,55.0957999 71.9184005,54.7748938 C71.2047031,54.4539877 70.591244,54.0127419 70.0780234,53.4511562 C69.5648028,52.8895706 69.1678587,52.2236904 68.8871912,51.4535158 C68.6065236,50.6833412 68.4661899,49.8409627 68.4661899,48.9263804 C68.4661899,48.0759792 68.6065236,47.2817367 68.8871912,46.5436527 C69.1678587,45.8055687 69.5648028,45.1597452 70.0780234,44.6061822 C70.591244,44.0526192 71.2047031,43.6193959 71.9184005,43.3065125 C72.632098,42.9936291 73.4299957,42.8371874 74.3120936,42.8371874 C75.1781534,42.8371874 76.0001084,42.9815951 76.7779584,43.2704106 C77.5558084,43.5592261 78.2173819,43.9683813 78.7626788,44.4978764 L78.7626788,44.4978764 L81,42.2354884 C80.1018639,41.4332232 79.0834417,40.8756489 77.9447334,40.5627655 C76.8060251,40.249882 75.5871261,40.0934403 74.2880364,40.0934403 C72.9729085,40.0934403 71.7660381,40.3060406 70.6674252,40.7312412 C69.5688123,41.1564417 68.6225618,41.762152 67.8286736,42.5483719 C67.0347854,43.3345918 66.4133073,44.2852761 65.9642393,45.4004247 C65.5151712,46.5155734 65.2906372,47.7550731 65.2906372,49.118924 C65.2906372,50.4506843 65.5151712,51.6621048 65.9642393,52.7531855 C66.4133073,53.8442662 67.0347854,54.7789051 67.8286736,55.5571024 C68.6225618,56.3352997 69.5688123,56.9369986 70.6674252,57.3621992 C71.7660381,57.7873997 72.9729085,58 74.2880364,58 Z M89.3478544,58 C90.1818379,58 90.9757261,57.8876829 91.7295189,57.6630486 C92.4833117,57.4384143 93.1448851,57.101463 93.7142393,56.6521944 C94.2835934,56.2029259 94.736671,55.6373289 95.073472,54.9554035 C95.4102731,54.2734781 95.5786736,53.4752242 95.5786736,52.5606418 C95.5786736,51.5497876 95.3781968,50.7394998 94.9772432,50.1297782 C94.5762896,49.5200566 94.0791071,49.0306748 93.4856957,48.6616328 C92.8922844,48.2925908 92.2427395,48.0037754 91.5370611,47.7951864 C90.8313827,47.5865975 90.1818379,47.3699858 89.5884265,47.1453516 C88.9950152,46.9207173 88.4978327,46.6559698 88.0968791,46.351109 C87.6959254,46.0462482 87.4954486,45.6050024 87.4954486,45.0273714 C87.4954486,44.6422841 87.5756394,44.309344 87.7360208,44.0285512 C87.8964023,43.7477584 88.1089077,43.5191128 88.3735371,43.3426144 C88.6381664,43.1661161 88.9348721,43.0377537 89.2636541,42.9575271 C89.5924361,42.8773006 89.9332466,42.8371874 90.2860858,42.8371874 C90.8794972,42.8371874 91.4448418,42.9454932 91.9821196,43.1621048 C92.5193975,43.3787164 92.9484179,43.7196791 93.2691808,44.1849929 L93.2691808,44.1849929 L95.4824447,41.8504011 C94.8088427,41.2246343 94.0510403,40.7753657 93.2090377,40.5025956 C92.3670351,40.2298254 91.4969658,40.0934403 90.5988296,40.0934403 C89.8129606,40.0934403 89.0431296,40.1977348 88.2893368,40.4063237 C87.535544,40.6149127 86.8659515,40.9318075 86.2805592,41.357008 C85.6951669,41.7822086 85.2220416,42.315715 84.8611834,42.9575271 C84.5003251,43.5993393 84.319896,44.3614913 84.319896,45.243983 C84.319896,46.2548372 84.5203728,47.0611137 84.9213264,47.6628126 C85.32228,48.2645116 85.8194625,48.7458707 86.4128739,49.10689 C87.0062852,49.4679094 87.6558301,49.7527135 88.3615085,49.9613025 C89.0671868,50.1698915 89.7167317,50.3905144 90.310143,50.6231713 C90.9035544,50.8558282 91.4007369,51.1406324 91.8016905,51.4775838 C92.2026441,51.8145352 92.4031209,52.2958943 92.4031209,52.9216612 C92.4031209,53.3067485 92.3149111,53.6477112 92.1384915,53.9445493 C91.962072,54.2413874 91.7295189,54.4860783 91.4408322,54.678622 C91.1521456,54.8711656 90.8313827,55.0155734 90.4785436,55.1118452 C90.1257044,55.208117 89.7728652,55.2562529 89.420026,55.2562529 C88.7464239,55.2562529 88.1089077,55.0998112 87.5074772,54.7869278 C86.9060468,54.4740444 86.4208929,54.0368098 86.0520156,53.4752242 L86.0520156,53.4752242 L83.76658,55.6894762 C84.4722583,56.523832 85.3142609,57.1175083 86.2925878,57.470505 C87.2709146,57.8235017 88.2893368,58 89.3478544,58 Z M113.93433,58 C115.265496,57.9839547 116.484395,57.7553091 117.591027,57.3140632 C118.697659,56.8728174 119.651929,56.2590845 120.453836,55.4728646 C121.255743,54.6866446 121.881231,53.7479943 122.330299,52.6569136 C122.779367,51.5658329 123.003901,50.3544125 123.003901,49.0226522 C123.003901,47.6588013 122.779367,46.4233129 122.330299,45.3161869 C121.881231,44.2090609 121.255743,43.2623879 120.453836,42.476168 C119.651929,41.6899481 118.697659,41.0922605 117.591027,40.6831052 C116.484395,40.27395 115.265496,40.077395 113.93433,40.0934403 C112.619202,40.0934403 111.412332,40.3060406 110.313719,40.7312412 C109.215106,41.1564417 108.268856,41.762152 107.474967,42.5483719 C106.681079,43.3345918 106.059601,44.2852761 105.610533,45.4004247 C105.161465,46.5155734 104.936931,47.7550731 104.936931,49.118924 C104.936931,50.4506843 105.161465,51.6621048 105.610533,52.7531855 C106.059601,53.8442662 106.681079,54.7789051 107.474967,55.5571024 C108.268856,56.3352997 109.215106,56.9369986 110.313719,57.3621992 C111.412332,57.7873997 112.619202,58 113.93433,58 Z M113.958388,55.2562529 C113.07629,55.2562529 112.278392,55.0957999 111.564694,54.7748938 C110.850997,54.4539877 110.237538,54.0127419 109.724317,53.4511562 C109.211097,52.8895706 108.814153,52.2236904 108.533485,51.4535158 C108.252818,50.6833412 108.112484,49.8409627 108.112484,48.9263804 C108.112484,48.0759792 108.252818,47.2817367 108.533485,46.5436527 C108.814153,45.8055687 109.211097,45.1597452 109.724317,44.6061822 C110.237538,44.0526192 110.850997,43.6193959 111.564694,43.3065125 C112.278392,42.9936291 113.07629,42.8371874 113.958388,42.8371874 C114.840485,42.8371874 115.642393,42.9936291 116.364109,43.3065125 C117.085826,43.6193959 117.703294,44.0526192 118.216515,44.6061822 C118.729736,45.1597452 119.12668,45.8055687 119.407347,46.5436527 C119.688015,47.2817367 119.828349,48.0759792 119.828349,48.9263804 C119.828349,49.8409627 119.688015,50.6833412 119.407347,51.4535158 C119.12668,52.2236904 118.729736,52.8895706 118.216515,53.4511562 C117.703294,54.0127419 117.085826,54.4539877 116.364109,54.7748938 C115.642393,55.0957999 114.840485,55.2562529 113.958388,55.2562529 Z M132.674902,58 C133.653229,58 134.559384,57.8435583 135.393368,57.5306748 C136.227352,57.2177914 136.949068,56.7725342 137.558518,56.1949033 C138.167967,55.6172723 138.649111,54.9152902 139.001951,54.0889571 C139.35479,53.2626239 139.531209,52.3360076 139.531209,51.3091081 L139.531209,51.3091081 L139.531209,40.5266635 L136.5,40.5266635 L136.5,51.2128362 C136.5,51.6300142 136.435847,52.0672487 136.307542,52.5245399 C136.179237,52.9818311 135.966732,53.4030203 135.670026,53.7881076 C135.37332,54.1731949 134.980386,54.4900897 134.491222,54.7387919 C134.002059,54.9874941 133.396619,55.1118452 132.674902,55.1118452 C131.953186,55.1118452 131.347746,54.9874941 130.858583,54.7387919 C130.369419,54.4900897 129.976485,54.1731949 129.679779,53.7881076 C129.383073,53.4030203 129.170568,52.9818311 129.042263,52.5245399 C128.913958,52.0672487 128.849805,51.6300142 128.849805,51.2128362 L128.849805,51.2128362 L128.849805,40.5266635 L125.818596,40.5266635 L125.818596,51.3091081 C125.818596,52.3360076 125.991006,53.2626239 126.335826,54.0889571 C126.680646,54.9152902 127.16179,55.6172723 127.779259,56.1949033 C128.396727,56.7725342 129.122453,57.2177914 129.956437,57.5306748 C130.79042,57.8435583 131.696576,58 132.674902,58 Z M149.779584,57.5667768 L149.779584,43.2704106 L155,43.2704106 L155,40.5266635 L141.527958,40.5266635 L141.527958,43.2704106 L146.748375,43.2704106 L146.748375,57.5667768 L149.779584,57.5667768 Z" id="FIGURETHINGSOUT" fill="#000000" fill-rule="nonzero"></path>
        </g>
        <g id="Group-3" transform="translate(568.000000, 209.000000)">
            <rect id="Rectangle-Copy" fill="#FFFFFF" filter="url(#filter-4)" x="0" y="0" width="162" height="64"></rect>
            <path d="M35.9475786,23.9947192 L35.9475786,9.88046087 L35.9955067,9.88046087 L41.1477783,23.9947192 L43.2566151,23.9947192 L48.4088867,9.88046087 L48.4568148,9.88046087 L48.4568148,23.9947192 L51.3325012,23.9947192 L51.3325012,7 L46.779331,7 L42.2021967,18.9059049 L37.6729905,7 L33.0718922,7 L33.0718922,23.9947192 L35.9475786,23.9947192 Z M56.6764853,23.9947192 L58.2101847,20.106097 L65.5671493,20.106097 L67.1487768,23.9947192 L70.5996006,23.9947192 L63.2905642,7 L60.6784823,7 L53.2975537,23.9947192 L56.6764853,23.9947192 Z M64.5127309,17.5136822 L59.240639,17.5136822 L61.900649,10.6005761 L64.5127309,17.5136822 Z M75.5122317,23.9947192 L75.5122317,15.6413826 L75.67998,15.6413826 L83.0369446,23.9947192 L87.2785821,23.9947192 L78.8192711,14.8492559 L86.7513729,7 L82.6774838,7 L75.656016,14.2011522 L75.5122317,14.2011522 L75.5122317,7 L72.4927609,7 L72.4927609,23.9947192 L75.5122317,23.9947192 Z M100.578632,23.9947192 L100.578632,21.2582813 L91.9276086,21.2582813 L91.9276086,16.6495439 L99.7159261,16.6495439 L99.7159261,13.9131061 L91.9276086,13.9131061 L91.9276086,9.73643783 L100.147279,9.73643783 L100.147279,7 L88.9081378,7 L88.9081378,23.9947192 L100.578632,23.9947192 Z M113.591113,23.9947192 L113.591113,7 L110.571643,7 L110.571643,23.9947192 L113.591113,23.9947192 Z M123.7998,23.9947192 L123.7998,9.73643783 L129,9.73643783 L129,7 L115.58013,7 L115.58013,9.73643783 L120.78033,9.73643783 L120.78033,23.9947192 L123.7998,23.9947192 Z M36.0194708,57 L36.0194708,49.5108017 L43.9515726,49.5108017 L43.9515726,57 L46.9710434,57 L46.9710434,40.0052808 L43.9515726,40.0052808 L43.9515726,46.7743639 L36.0194708,46.7743639 L36.0194708,40.0052808 L33,40.0052808 L33,57 L36.0194708,57 Z M52.2431353,57 L53.7768347,53.1113778 L61.1337993,53.1113778 L62.7154269,57 L66.1662506,57 L58.8572142,40.0052808 L56.2451323,40.0052808 L48.8642037,57 L52.2431353,57 Z M60.0793809,50.518963 L54.8072891,50.518963 L57.4672991,43.6058569 L60.0793809,50.518963 Z M71.0788817,57 L71.0788817,49.9668747 L73.2356465,49.9668747 C74.1303045,49.9668747 74.9890165,49.9028645 75.8117823,49.774844 C76.6345482,49.6468235 77.3574638,49.4027844 77.9805292,49.0427268 C78.6035946,48.6826692 79.0988517,48.1745879 79.4663005,47.518483 C79.8337494,46.862378 80.0174738,45.9982397 80.0174738,44.9260682 C80.0174738,43.9819171 79.8457314,43.193791 79.5022466,42.5616899 C79.1587619,41.9295887 78.6994508,41.4255081 78.1243135,41.0494479 C77.5491762,40.6733877 76.8821767,40.4053449 76.123315,40.2453193 C75.3644533,40.0852936 74.5776335,40.0052808 73.7628557,40.0052808 L73.7628557,40.0052808 L68.0594109,40.0052808 L68.0594109,57 L71.0788817,57 Z M72.9001498,47.3744599 L71.0788817,47.3744599 L71.0788817,42.5976956 L73.2356465,42.5976956 C73.6350474,42.5976956 74.0504244,42.6216995 74.4817773,42.6697072 C74.9131303,42.7177148 75.3045432,42.8257321 75.656016,42.993759 C76.0074888,43.1617859 76.2950574,43.4018243 76.5187219,43.7138742 C76.7423864,44.0259241 76.8542187,44.4459914 76.8542187,44.9740759 C76.8542187,45.550168 76.7304044,45.9982397 76.4827758,46.3182909 C76.2351473,46.6383421 75.9156266,46.8783805 75.5242137,47.0384061 C75.1328008,47.1984317 74.7054418,47.2944471 74.2421368,47.3264522 C73.7788318,47.3584574 73.3315027,47.3744599 72.9001498,47.3744599 L72.9001498,47.3744599 Z M85.7209186,57 L85.7209186,49.9668747 L87.8776835,49.9668747 C88.7723415,49.9668747 89.6310534,49.9028645 90.4538193,49.774844 C91.2765851,49.6468235 91.9995007,49.4027844 92.6225662,49.0427268 C93.2456316,48.6826692 93.7408887,48.1745879 94.1083375,47.518483 C94.4757863,46.862378 94.6595107,45.9982397 94.6595107,44.9260682 C94.6595107,43.9819171 94.4877683,43.193791 94.1442836,42.5616899 C93.8007988,41.9295887 93.3414878,41.4255081 92.7663505,41.0494479 C92.1912132,40.6733877 91.5242137,40.4053449 90.765352,40.2453193 C90.0064903,40.0852936 89.2196705,40.0052808 88.4048927,40.0052808 L88.4048927,40.0052808 L82.7014478,40.0052808 L82.7014478,57 L85.7209186,57 Z M87.5421867,47.3744599 L85.7209186,47.3744599 L85.7209186,42.5976956 L87.8776835,42.5976956 C88.2770844,42.5976956 88.6924613,42.6216995 89.1238143,42.6697072 C89.5551672,42.7177148 89.9465801,42.8257321 90.2980529,42.993759 C90.6495257,43.1617859 90.9370944,43.4018243 91.1607589,43.7138742 C91.3844234,44.0259241 91.4962556,44.4459914 91.4962556,44.9740759 C91.4962556,45.550168 91.3724413,45.9982397 91.1248128,46.3182909 C90.8771842,46.6383421 90.5576635,46.8783805 90.1662506,47.0384061 C89.7748377,47.1984317 89.3474788,47.2944471 88.8841737,47.3264522 C88.4208687,47.3584574 87.9735397,47.3744599 87.5421867,47.3744599 L87.5421867,47.3744599 Z M109.013979,57 L109.013979,54.2635622 L100.362956,54.2635622 L100.362956,49.6548248 L108.151273,49.6548248 L108.151273,46.9183869 L100.362956,46.9183869 L100.362956,42.7417187 L108.582626,42.7417187 L108.582626,40.0052808 L97.3434848,40.0052808 L97.3434848,57 L109.013979,57 Z M115.004993,57 L115.004993,43.9659145 L115.052921,43.9659145 L123.440339,57 L127.274588,57 L127.274588,40.0052808 L124.255117,40.0052808 L124.255117,52.631301 L124.207189,52.631301 L115.987519,40.0052808 L111.985522,40.0052808 L111.985522,57 L115.004993,57 Z" id="MAKEITHAPPEN" fill="#000000" fill-rule="nonzero"></path>
        </g>
        <line x1="512.5" y1="78.5" x2="512.5" y2="322.5" id="Line" stroke="#FCFCFC" stroke-width="3" stroke-linecap="square"></line>
    </g>
</svg>