<svg xmlns="http://www.w3.org/2000/svg" width="32" height="25.391" viewBox="0 0 32 25.391">
  <path id="medium-m" d="M17.991,69.18a1.249,1.249,0,0,0-.4-1.045l-2.984-3.6V64h9.275L31.05,79.725,37.355,64H46.2v.536l-2.554,2.448a.745.745,0,0,0-.284.714V85.693a.745.745,0,0,0,.284.714l2.494,2.448v.536H33.591v-.536l2.587-2.507c.251-.251.251-.331.251-.714V71.092L29.237,89.345h-.973L19.9,71.092V83.324a1.666,1.666,0,0,0,.463,1.4L23.727,88.8v.536H14.2v-.529l3.361-4.082a1.612,1.612,0,0,0,.43-1.4Z" transform="translate(-14.2 -64)"/>
</svg>
